<?xml version="1.0" standalone="no"?>
<!DOCTYPE svg PUBLIC "-//W3C//DTD SVG 20010904//EN"
 "http://www.w3.org/TR/2001/REC-SVG-20010904/DTD/svg10.dtd">
<svg height="1024.000000pt" preserveAspectRatio="xMidYMid meet"
 version="1.0" viewBox="0 0 1024.000000 1024.000000" width="1024.000000pt"
 xmlns="http://www.w3.org/2000/svg">

<g fill="#000000"
stroke="none" transform="translate(0.000000,1024.000000) scale(0.100000,-0.100000)">
<path d="M4900 8353 c-1169 -83 -2163 -752 -2694 -1811 -82 -163 -159 -372
-215 -587 -62 -233 -90 -432 -98 -700 -21 -700 176 -1347 591 -1939 315 -449
712 -794 1195 -1035 707 -354 1474 -442 2231 -255 547 134 1059 424 1466 829
573 571 906 1269 975 2045 14 166 6 522 -16 680 -93 668 -414 1321 -889 1808
-560 574 -1284 904 -2111 962 -131 9 -332 11 -435 3z m1761 -1066 c57 -154
136 -243 274 -307 44 -21 88 -40 98 -43 10 -4 17 -17 17 -32 0 -21 -8 -29 -37
-41 -197 -79 -301 -179 -368 -354 -22 -59 -30 -70 -50 -70 -19 0 -27 11 -50
68 -68 171 -157 262 -325 333 -58 25 -65 31 -68 58 -3 26 1 33 25 42 215 87
311 182 379 377 17 49 20 53 47 50 27 -3 32 -10 58 -81z m-1696 -466 c449 -70
744 -188 928 -371 181 -182 165 -359 -50 -539 -474 -395 -1640 -495 -2376
-202 -246 98 -415 223 -488 361 -19 36 -24 60 -24 125 0 68 4 89 29 139 120
244 546 436 1116 502 185 21 687 12 865 -15z m2424 -319 c34 -66 101 -127 180
-164 91 -42 96 -65 19 -92 -64 -22 -126 -64 -163 -108 -25 -29 -72 -119 -88
-170 -11 -33 -43 -7 -74 61 -47 100 -110 162 -216 210 -48 23 -87 45 -87 50 0
14 22 27 75 45 103 34 196 127 235 235 17 45 28 61 44 63 17 2 24 -6 37 -42 9
-25 26 -65 38 -88z m-537 -580 c15 -10 106 -94 204 -187 135 -130 183 -182
200 -220 28 -59 30 -116 6 -167 -9 -21 -120 -157 -245 -303 l-229 -266 -86 79
c-211 193 -497 464 -497 472 0 10 394 469 471 548 56 58 64 62 105 62 25 0 55
-8 71 -18z m-3682 -366 c240 -158 594 -265 1015 -306 217 -22 578 -12 795 21
405 61 773 214 980 406 l62 57 -4 -170 -3 -171 -80 -87 c-44 -49 -188 -208
-320 -355 -273 -303 -275 -304 -460 -346 -179 -39 -336 -57 -570 -62 -697 -16
-1324 162 -1552 440 -80 97 -78 83 -81 445 l-3 323 73 -73 c40 -40 107 -95
148 -122z m3145 -642 c94 -87 205 -192 249 -232 70 -65 77 -74 65 -90 -20 -25
-151 -174 -239 -272 -42 -47 -285 -323 -540 -615 -687 -786 -701 -802 -741
-824 -43 -24 -108 -27 -147 -7 -31 16 -415 400 -443 443 -44 66 -23 111 133
288 68 77 301 343 517 590 217 248 415 473 440 500 25 28 131 148 235 268
l190 218 55 -54 c31 -29 133 -125 226 -213z m-3179 -342 c324 -218 870 -337
1459 -318 169 5 334 21 434 42 31 6 1 -29 -294 -355 -180 -199 -340 -368 -356
-376 -58 -31 -350 -10 -578 41 -360 80 -699 252 -815 412 l-31 44 -3 340 -3
341 63 -65 c35 -35 91 -83 124 -106z"/>
</g>
</svg>
