<?xml version="1.0" encoding="UTF-8"?>
<svg height="1024" version="1.1" width="1024" xmlns="http://www.w3.org/2000/svg">
<path d="M0 0 C1.55074219 0.07420166 1.55074219 0.07420166 3.1328125 0.14990234 C8.42343221 0.40826094 13.71213273 0.69049843 19 1 C19.33 1.66 19.66 2.32 20 3 C21.37671875 2.93039063 21.37671875 2.93039063 22.78125 2.859375 C28.1472951 2.8647626 33.27817475 4.11751153 38.5 5.25 C39.55993164 5.47453857 40.61986328 5.69907715 41.71191406 5.93041992 C48.93854967 7.48534479 56.07098447 9.24995328 63.171875 11.30078125 C66.16163354 12.16000724 66.16163354 12.16000724 70 12 C70 12.66 70 13.32 70 14 C71.2478125 14.23976562 72.495625 14.47953125 73.78125 14.7265625 C79.594705 16.02574726 84.99045926 18.13888474 90.5 20.375 C91.58224854 20.81271729 92.66449707 21.25043457 93.77954102 21.70141602 C112.36512817 29.33456646 130.16544305 38.01739749 147 49 C147.66177246 49.42522949 148.32354492 49.85045898 149.00537109 50.28857422 C166.15405219 61.31545173 181.74255176 74.09536391 196.6875 87.9375 C197.73127808 88.89595825 197.73127808 88.89595825 198.79614258 89.8737793 C199.76910278 90.7851062 199.76910278 90.7851062 200.76171875 91.71484375 C201.33881592 92.25230225 201.91591309 92.78976074 202.51049805 93.34350586 C204.10408985 95.11575965 205.03570201 96.83025572 206 99 C206.66 99 207.32 99 208 99 C209.375 100.328125 209.375 100.328125 211 102.25 C211.62519531 102.98734375 212.25039063 103.7246875 212.89453125 104.484375 C213.93673828 105.72960937 213.93673828 105.72960937 215 107 C216.11955078 108.30710937 216.11955078 108.30710937 217.26171875 109.640625 C259 158.83937198 259 158.83937198 259 174 C259.66 174.33 260.32 174.66 261 175 C262.01806641 176.89160156 262.01806641 176.89160156 263.1015625 179.390625 C263.70713989 180.77967041 263.70713989 180.77967041 264.32495117 182.19677734 C264.75396729 183.20434082 265.1829834 184.2119043 265.625 185.25 C266.07012939 186.28979004 266.51525879 187.32958008 266.97387695 188.40087891 C295.03540745 254.47462381 301.81889887 325.23633971 284.56616211 395.24902344 C283.86561377 398.18487619 283.86561377 398.18487619 284 402 C283.34 402 282.68 402 282 402 C281.90460937 402.92941406 281.80921875 403.85882812 281.7109375 404.81640625 C278.44175066 427.40094442 266.01855923 449.43443187 255.6875 469.4375 C255.20829102 470.3663501 254.72908203 471.2952002 254.23535156 472.25219727 C251.48752411 477.47354482 248.51430897 482.38409452 245.11254883 487.20727539 C243.82423254 488.93157794 243.82423254 488.93157794 244 491 C242.33624963 492.66957787 240.66901905 494.33568904 239 496 C237.51768566 498.03053114 236.08144101 500.09531431 234.6875 502.1875 C224.02454618 517.90866349 210.99436134 534.1135256 197 547 C196.34 547 195.68 547 195 547 C195 547.66 195 548.32 195 549 C193.7421875 550.3046875 193.7421875 550.3046875 191.875 551.875 C191.14152344 552.49632812 190.40804687 553.11765625 189.65234375 553.7578125 C188.77707031 554.49773438 187.90179687 555.23765625 187 556 C185.95809095 556.91230162 184.91782246 557.82647913 183.87890625 558.7421875 C144.67107648 593.13990258 97.44748688 616.3683639 47 629 C46.17129395 629.20850586 45.34258789 629.41701172 44.48876953 629.63183594 C-33.99873739 648.89237457 -123.19008263 632.75919139 -192.28515625 591.9296875 C-202.66797949 585.60278304 -212.42150004 578.47461617 -222 571 C-222.92167969 570.29230469 -223.84335937 569.58460938 -224.79296875 568.85546875 C-231.00700742 564.00476448 -236.77647482 558.70412119 -242.54492188 553.34179688 C-244.75487541 551.30389341 -247.00398497 549.31048883 -249.25 547.3125 C-256.31945527 540.95564582 -262.87165103 534.26759333 -269 527 C-269.66515625 526.21238281 -270.3303125 525.42476562 -271.015625 524.61328125 C-299.40241812 490.45722982 -320.84849591 452.10485937 -333.9921875 409.640625 C-334.71154964 406.86248671 -334.71154964 406.86248671 -337 406 C-336.67 405.01 -336.34 404.02 -336 403 C-336.37004164 400.41776896 -336.37004164 400.41776896 -337.109375 397.5390625 C-337.3681543 396.43900879 -337.62693359 395.33895508 -337.89355469 394.20556641 C-338.31749512 392.43318604 -338.31749512 392.43318604 -338.75 390.625 C-355.93061433 315.68470239 -346.95708256 234.879867 -309.74243164 167.20166016 C-307.70321187 163.80210873 -307.70321187 163.80210873 -307 160 C-306.34 160 -305.68 160 -305 160 C-304.67128906 159.03513672 -304.67128906 159.03513672 -304.3359375 158.05078125 C-302.49067209 153.83688567 -300.08689182 150.06626591 -297.625 146.1875 C-297.09551758 145.35162354 -296.56603516 144.51574707 -296.02050781 143.65454102 C-290.75450802 135.44838393 -284.99521611 127.68269246 -279 120 C-278.29230469 119.07832031 -277.58460938 118.15664063 -276.85546875 117.20703125 C-272.39113228 111.48795256 -267.56381418 106.15801313 -262.625 100.8515625 C-259.77061018 97.75081165 -257.03365782 94.56860549 -254.33984375 91.328125 C-253 90 -253 90 -251 90 C-251 89.34 -251 88.68 -251 88 C-249.49609375 86.484375 -249.49609375 86.484375 -247.4375 84.75 C-246.71046875 84.13125 -245.9834375 83.5125 -245.234375 82.875 C-244.49703125 82.25625 -243.7596875 81.6375 -243 81 C-241.72787046 79.91818906 -240.45692728 78.83498058 -239.1875 77.75 C-238.37345703 77.06164062 -238.37345703 77.06164062 -237.54296875 76.359375 C-235.99906067 75.03649567 -235.99906067 75.03649567 -234.67553711 73.62524414 C-232.77490767 71.78166404 -230.76574614 70.22704189 -228.6484375 68.63671875 C-227.79636719 67.99669922 -226.94429688 67.35667969 -226.06640625 66.69726562 C-225.17824219 66.03404297 -224.29007812 65.37082031 -223.375 64.6875 C-222.51003906 64.03587891 -221.64507812 63.38425781 -220.75390625 62.71289062 C-215.86824019 59.05413471 -210.92631401 55.55072299 -205.79931641 52.23754883 C-203.86896077 50.99022528 -203.86896077 50.99022528 -202 49 C-200.56253481 48.15112652 -199.09909166 47.34604715 -197.625 46.5625 C-193.98437066 44.62239688 -190.37776666 42.65084898 -186.80859375 40.58203125 C-129.54478516 7.69624403 -65.19616033 -3.1366176 0 0 Z M119 95 C118.82984375 95.52207031 118.6596875 96.04414063 118.484375 96.58203125 C117.96582193 98.15699829 117.44042074 99.72971854 116.91015625 101.30078125 C116.30128043 103.10650311 115.70498482 104.91651383 115.12109375 106.73046875 C111.12707921 118.57882151 104.36160963 128.17951675 93.1875 134.3125 C88.05038285 136.65702608 82.49256928 137.79163476 77 139 C76.67 140.65 76.34 142.3 76 144 C80.25823503 145.93556138 84.4581985 147.45565202 88.9375 148.8125 C94.55261771 150.65145105 98.61277808 153.0854062 103 157 C103.86625 157.7425 104.7325 158.485 105.625 159.25 C111.53975719 166.09866623 114.74808067 173.32041691 117 182 C117.65629516 184.00342734 118.31760646 186.00531118 119 188 C120.65 188 122.3 188 124 188 C124.43699219 186.33324219 124.43699219 186.33324219 124.8828125 184.6328125 C128.65423497 170.73390109 133.3013312 159.54781916 146.14453125 151.6875 C149.95921512 149.70357263 153.87825803 148.23652259 158 147 C158 146.34 158 145.68 158 145 C159.175625 145.2784375 159.175625 145.2784375 160.375 145.5625 C162.97089775 146.25962266 162.97089775 146.25962266 165 145 C165 143.35 165 141.7 165 140 C161.80005855 138.61335871 158.60516941 137.60729722 155.25 136.6875 C144.41525629 133.42421666 137.25344285 127.88056932 131.2734375 118.20703125 C127.44928405 111.07677469 125.45843631 103.93184659 124 96 C122.35 95.67 120.7 95.34 119 95 Z M-229 184 C-229.63679688 184.55945313 -230.27359375 185.11890625 -230.9296875 185.6953125 C-237.90901092 192.13546072 -243.22464869 200.38234437 -244 210 C-244.12713427 221.31495005 -240.09815423 229.64062599 -232.33203125 237.6953125 C-231.17767578 238.83613281 -231.17767578 238.83613281 -230 240 C-229.40574219 240.61617188 -228.81148437 241.23234375 -228.19921875 241.8671875 C-199.55528303 269.43141833 -147.9680063 276.21576055 -110.375 278.1875 C-109.57074585 278.23047211 -108.7664917 278.27344421 -107.93786621 278.31771851 C-61.79440573 280.71118142 -10.85196483 276.39923193 30 253 C30.99644531 252.43796875 31.99289062 251.8759375 33.01953125 251.296875 C44.90076624 244.18475112 56.50127313 234.32561504 60.9375 220.8125 C63.27166642 211.40289163 61.51886183 202.87099229 56.52734375 194.54296875 C44.7654594 178.66581517 27.23141359 169.48184522 9 163 C7.33904297 162.37544922 7.33904297 162.37544922 5.64453125 161.73828125 C-59.49573699 138.4055524 -174.80506005 132.87683802 -229 184 Z M189 171 C188.3503125 172.7325 188.3503125 172.7325 187.6875 174.5 C187.41164063 175.22832031 187.13578125 175.95664062 186.8515625 176.70703125 C186.30585403 178.17643892 185.77805844 179.65269909 185.2734375 181.13671875 C182.70698771 188.5399393 179.25238094 192.28097298 172.31640625 195.9375 C169.26057103 197.33916472 166.25025085 198.15493478 163 199 C162.01 199.66 161.02 200.32 160 201 C160.33 202.65 160.66 204.3 161 206 C161.79664063 206.24234375 162.59328125 206.4846875 163.4140625 206.734375 C173.19361217 209.82766322 179.24558007 212.64636626 184.625 221.75 C186.08505971 225.20105022 186.86996316 228.47691236 187.5703125 232.14453125 C187.82872041 234.0051694 187.82872041 234.0051694 189 235 C190.66617115 235.04063832 192.33388095 235.042721 194 235 C194.47179687 233.35451172 194.47179687 233.35451172 194.953125 231.67578125 C195.3848145 230.22117532 195.81713991 228.76675801 196.25 227.3125 C196.45496094 226.59126953 196.65992188 225.87003906 196.87109375 225.12695312 C198.72623658 218.97125192 201.25848056 214.56449853 207.0625 211.375 C212.13582372 208.69459397 217.43110694 207.28032495 223 206 C223.69159401 204.15274948 223.69159401 204.15274948 224 202 C221.61725154 198.42587731 220.96601475 198.52039967 216.9375 197.6875 C209.8226837 195.89479038 204.49497136 192.82325706 199.625 187.3125 C197.71804999 183.42525574 196.68809732 179.59816022 195.7109375 175.390625 C195.15955921 172.84208469 195.15955921 172.84208469 193 171 C191.68 171 190.36 171 189 171 Z M121.5625 252.75 C120.98902832 253.3776123 120.41555664 254.00522461 119.82470703 254.65185547 C116.43227895 258.37572213 113.08861981 262.13991566 109.796875 265.953125 C107.44634554 268.63068465 105.03661609 271.25262428 102.625 273.875 C101.67445922 274.91013793 100.72393829 275.9452941 99.7734375 276.98046875 C98.02939782 278.87960123 96.28451597 280.77794692 94.5390625 282.67578125 C89.75352739 287.92680356 85.26740594 293.31927313 81 299 C82.56332922 302.99207282 85.36049144 305.4160785 88.5 308.1875 C89.03608887 308.66944824 89.57217773 309.15139648 90.12451172 309.64794922 C91.22230712 310.63391707 92.32240457 311.61732787 93.42480469 312.59814453 C95.66887981 314.59527401 97.89562709 316.61148701 100.125 318.625 C100.929375 319.346875 101.73375 320.06875 102.5625 320.8125 C105.08760867 323.07862316 107.60616628 325.35190615 110.125 327.625 C113.69892966 330.84265007 117.30246637 334.02238975 120.9296875 337.1796875 C123.34827961 339.3062232 125.73653963 341.46469106 128.125 343.625 C131.6845614 346.83849293 135.28439311 349.96884701 139 353 C143.18175624 351.40080106 145.76736772 348.31129305 148.6875 345.0625 C149.21786865 344.48056885 149.7482373 343.8986377 150.29467773 343.29907227 C154.26501321 338.90734132 158.01696952 334.36312478 161.72265625 329.74609375 C164.2182694 326.73680379 166.83775124 323.86071148 169.5 321 C173.88185738 316.28830077 178.02106063 311.43079556 182.0546875 306.4140625 C183.66989831 304.40964427 185.31953566 302.44933864 187 300.5 C190.14942731 296.56321587 190.34812301 293.13361357 190.27734375 288.2734375 C189.54134719 282.24033892 184.27431626 277.90263658 180 274 C179.34 274 178.68 274 178 274 C178 273.34 178 272.68 178 272 C176.4820521 270.44744227 176.4820521 270.44744227 174.49609375 268.84375 C171.60607142 266.38675411 168.78316578 263.89643562 166.03515625 261.28125 C165.38434082 260.6620166 164.73352539 260.0427832 164.06298828 259.40478516 C163.40282715 258.77620605 162.74266602 258.14762695 162.0625 257.5 C151.88906484 246.69054786 151.88906484 246.69054786 138.75 241.6875 C138.00234375 241.65011719 137.2546875 241.61273438 136.484375 241.57421875 C130.02697534 242.68091146 125.73871816 248.10741474 121.5625 252.75 Z M-244 257 C-244.09314049 264.78060981 -244.1639863 272.56108627 -244.20724869 280.3421154 C-244.22802442 283.95614345 -244.25615513 287.56978695 -244.30175781 291.18359375 C-244.34557814 294.67847537 -244.36921218 298.17298976 -244.37950897 301.66812515 C-244.39037481 303.63441341 -244.42154181 305.60055623 -244.45318604 307.56661987 C-244.45622555 319.84555452 -241.01199954 327.85325375 -233 337 C-232.52304687 337.58265625 -232.04609375 338.1653125 -231.5546875 338.765625 C-212.49901656 360.11595789 -176.74447998 368.75963233 -150 374 C-148.86715576 374.22961426 -148.86715576 374.22961426 -147.71142578 374.46386719 C-104.91313562 383.01008174 -56.10945699 382.5361823 -14 371 C-13.20174805 370.78819092 -12.40349609 370.57638184 -11.58105469 370.3581543 C-6.32464825 368.81475369 -3.19038595 366.89876683 0.625 362.8125 C1.08447021 362.3270874 1.54394043 361.8416748 2.01733398 361.34155273 C3.36218346 359.91042545 4.68163946 358.45556549 6 357 C7.08087891 355.83210938 7.08087891 355.83210938 8.18359375 354.640625 C10.97808819 351.54983281 13.25128897 348.80700247 15 345 C15.66 345 16.32 345 17 345 C20.63633539 341.52001493 20.63633539 341.52001493 22 337 C23.485 336.505 23.485 336.505 25 336 C26.31153763 334.53190495 27.54994075 332.99804216 28.75 331.4375 C32.77224335 326.38340664 37.04673423 321.67700901 41.5 317 C46.64685858 311.5845763 51.54425052 306.10750033 56.16796875 300.234375 C58 298 58 298 60.09008789 296.37695312 C62.80176851 293.00217076 62.50200082 289.87114469 62.390625 285.734375 C62.38496521 284.94097717 62.37930542 284.14757935 62.37347412 283.33013916 C62.35113147 280.80280527 62.30094176 278.27690335 62.25 275.75 C62.22993214 274.03387468 62.21168187 272.31772708 62.1953125 270.6015625 C62.15127395 266.4004922 62.08226326 262.20048865 62 258 C58.70539927 261.2533731 58.70539927 261.2533731 55.54296875 264.6328125 C29.14489591 293.69351517 -18.80333773 304.35947561 -56 308 C-56.85319824 308.08685059 -57.70639648 308.17370117 -58.58544922 308.26318359 C-68.01838466 309.11715067 -77.41862935 309.15231852 -86.88134766 309.13037109 C-89.59934168 309.12505023 -92.31716748 309.1303258 -95.03515625 309.13671875 C-103.95883365 309.1405562 -112.85984541 308.99676169 -121.7734375 308.5546875 C-122.58873932 308.51594513 -123.40404114 308.47720276 -124.24404907 308.43728638 C-129.8757871 308.1242129 -129.8757871 308.1242129 -131 307 C-132.57829463 306.70225481 -134.16688759 306.45878991 -135.7578125 306.23828125 C-170.59171088 301.18354636 -214.96592716 291.24776008 -238.9609375 262.6640625 C-239.42757812 261.99117188 -239.89421875 261.31828125 -240.375 260.625 C-241.23084193 259.40302249 -242.1000497 258.18986718 -243 257 C-243.33 257 -243.66 257 -244 257 Z M63.5625 318.328125 C62.7890625 319.27945312 62.7890625 319.27945312 62 320.25 C58.92557272 323.92368005 55.75256439 327.48404319 52.5 331 C48.85415065 334.95838588 45.25737288 338.95130751 41.734375 343.01953125 C39.72735462 345.31133155 37.67597149 347.55996752 35.625 349.8125 C32.57141133 353.18940982 29.65570795 356.63217132 26.8125 360.1875 C21.90595269 366.25816662 16.56799383 371.89068915 11.21875 377.5703125 C7.26156577 381.77369141 3.46950245 386.09676864 -0.27050781 390.49365234 C-1.76242576 392.24683488 -3.25576805 393.99878925 -4.75 395.75 C-5.2648999 396.35376465 -5.7797998 396.9575293 -6.31030273 397.57958984 C-9.69114728 401.52504859 -13.15112193 405.38125524 -16.6875 409.1875 C-20.07524373 412.83413376 -23.31897796 416.55617401 -26.4375 420.4375 C-30.2781038 425.21249042 -34.36186133 429.68604083 -38.54956055 434.15283203 C-41.76235507 437.60013336 -44.79928528 441.13428148 -47.75 444.8125 C-50.94606419 448.79608361 -54.31977385 452.36948468 -57.98046875 455.921875 C-61.08181615 459.11320347 -63.79214561 462.60112976 -66.57421875 466.0703125 C-69.15889258 469.19189925 -71.86233253 472.1621324 -74.625 475.125 C-84.05008039 484.44867596 -84.05008039 484.44867596 -88.1875 496.4375 C-88.01604909 499.69506736 -87.72122938 501.3105791 -86 504 C-85.34 504 -84.68 504 -84 504 C-83.7525 504.5775 -83.505 505.155 -83.25 505.75 C-81.81700012 508.32939979 -80.21575324 510.06121592 -78 512 C-77.34 512 -76.68 512 -76 512 C-75.73703125 512.60070312 -75.4740625 513.20140625 -75.203125 513.8203125 C-73.92605624 516.13396304 -72.79531457 517.22985567 -70.75 518.875 C-66.58468333 522.37903464 -62.80808825 526.18210307 -59 530.0625 C-48.73066709 540.91443884 -48.73066709 540.91443884 -35 545.3125 C-28.28218466 545.07436849 -24.64235754 540.9504896 -20.16015625 536.359375 C-17.09148571 533.00769868 -14.2703152 529.47575088 -11.42578125 525.93359375 C-7.95653852 521.73810052 -4.2619463 517.76897147 -0.5625 513.77734375 C2.10557815 510.88557002 4.70054415 507.94151172 7.27734375 504.96875 C9.22159136 502.74675273 11.20336964 500.56144777 13.1875 498.375 C16.82284521 494.35081482 20.36133312 490.25488227 23.875 486.125 C28.21501664 481.02773006 32.65360775 476.04221548 37.19775391 471.12646484 C40.31027753 467.75939383 43.36556897 464.35231969 46.36328125 460.8828125 C47.55538171 459.5114702 48.76333333 458.15385931 49.98046875 456.8046875 C50.94919922 455.72574219 50.94919922 455.72574219 51.9375 454.625 C52.52402344 453.97789062 53.11054687 453.33078125 53.71484375 452.6640625 C55.20374533 451.08660942 55.20374533 451.08660942 55 449 C55.66 449 56.32 449 57 449 C58.40301437 447.69113189 58.40301437 447.69113189 59.875 445.875 C60.49632812 445.14539063 61.11765625 444.41578125 61.7578125 443.6640625 C62.49773437 442.78492188 63.23765625 441.90578125 64 441 C65.91225308 438.74622276 67.83021636 436.49736455 69.75 434.25 C70.26393311 433.64744385 70.77786621 433.0448877 71.30737305 432.42407227 C75.13071556 427.96162511 79.07247506 423.6267298 83.07202148 419.32250977 C85.94968564 416.20473841 88.66371732 413.00092187 91.3125 409.6875 C96.16206791 403.65830746 101.45521489 398.08402647 106.7578125 392.45703125 C109.75867318 389.27001083 112.68788565 386.03246944 115.53515625 382.70703125 C116.58762548 381.48055377 117.66052646 380.2714999 118.74609375 379.07421875 C119.58333984 378.14029297 119.58333984 378.14029297 120.4375 377.1875 C120.93121094 376.64480469 121.42492187 376.10210938 121.93359375 375.54296875 C123.28428001 373.90128353 123.28428001 373.90128353 123 371 C123.66 370.67 124.32 370.34 125 370 C113.04889827 358.71119204 101.04485994 347.50132835 88.7890625 336.54296875 C86.55288987 334.50410547 84.34522336 332.44408109 82.1484375 330.36328125 C81.47401611 329.72624268 80.79959473 329.0892041 80.10473633 328.43286133 C78.76208431 327.16211703 77.42325413 325.88732019 76.08862305 324.6081543 C75.472854 324.02590088 74.85708496 323.44364746 74.22265625 322.84375 C73.67359619 322.31974609 73.12453613 321.79574219 72.55883789 321.25585938 C70.90608782 319.77485126 70.90608782 319.77485126 68 319 C68 318.34 68 317.68 68 317 C65.04106182 316.66069419 65.04106182 316.66069419 63.5625 318.328125 Z M-244 358 C-244.09312931 365.91102849 -244.16398037 373.82182376 -244.20724869 381.73326683 C-244.22802687 385.40782562 -244.2561623 389.08200637 -244.30175781 392.75634766 C-244.34556907 396.30958335 -244.36921035 399.86245796 -244.37950897 403.41594315 C-244.39037784 405.41546807 -244.42154635 407.41484993 -244.45318604 409.41415405 C-244.45575347 419.95611841 -242.53746423 428.19302507 -235.17578125 435.99609375 C-219.88071619 450.08293105 -199.89619862 460.22453888 -180 466 C-179.29085449 466.21817383 -178.58170898 466.43634766 -177.85107422 466.66113281 C-156.24240444 473.28418366 -134.19613076 477.92839687 -111.5625 478.625 C-110.27520996 478.69630127 -110.27520996 478.69630127 -108.96191406 478.76904297 C-105.34976546 478.79846253 -102.95049296 478.68749581 -99.96972656 476.53149414 C-98.18247737 474.76751398 -96.57702715 472.9525354 -95 471 C-94.37351562 470.31292969 -93.74703125 469.62585938 -93.1015625 468.91796875 C-92.61429688 468.34691406 -92.12703125 467.77585937 -91.625 467.1875 C-89.0596162 464.2125649 -86.45379438 461.28280336 -83.8125 458.375 C-80.19632582 454.37269197 -76.67992801 450.29716812 -73.1875 446.1875 C-68.16410665 440.28312038 -62.96201883 434.57065188 -57.68359375 428.89453125 C-46.76265704 418.70328878 -46.76265704 418.70328878 -40 407 C-42.0625351 407.14533606 -44.12502561 407.29130498 -46.1875 407.4375 C-48.02532872 407.56744749 -49.86317625 407.69714201 -51.70117188 407.82470703 C-53.33924913 407.94961564 -54.97594379 408.09325117 -56.61132812 408.24951172 C-67.43693662 409.22579376 -78.26233684 409.24354065 -89.125 409.25 C-90.65767517 409.25101212 -90.65767517 409.25101212 -92.22131348 409.25204468 C-108.34063947 409.23517158 -124.06506749 408.6358535 -140 406 C-141.09103027 405.82307617 -142.18206055 405.64615234 -143.30615234 405.46386719 C-181.91162056 399.03054841 -215.97625829 386.10792324 -244 358 Z " fill="#3B8DEB" transform="translate(539,191)"/>
<path d="M0 0 C2.31585287 2.31585287 2.68364161 3.75623149 3.5859375 6.875 C3.87726563 7.86113281 4.16859375 8.84726562 4.46875 9.86328125 C4.7678125 10.89839844 5.066875 11.93351563 5.375 13 C13.04715987 39.44518823 25.21651002 67.70802835 42.15234375 89.58203125 C44.18602074 92.24343941 45.99308018 95.00066937 47.8125 97.8125 C58.18550338 113.47290977 70.65101584 128.21884969 84.26953125 141.14453125 C86 143 86 143 86 145 C86.59683594 145.26683594 87.19367188 145.53367187 87.80859375 145.80859375 C90.04574324 147.02486932 91.34420067 148.20357259 93.0625 150.0625 C97.6886611 154.81634707 102.80904415 158.88256643 108 163 C108.94359375 163.76054688 109.8871875 164.52109375 110.859375 165.3046875 C120.80949313 173.16682747 131.36152271 180.11068197 142 187 C142.66757324 187.43731445 143.33514648 187.87462891 144.02294922 188.32519531 C159.2548564 198.2396482 176.24587176 205.10657678 193 212 C189.64314827 213.15285339 187.94621908 212.88626613 184.71875 211.48046875 C183.88714355 211.12299561 183.05553711 210.76552246 182.19873047 210.3972168 C181.30814941 209.99801025 180.41756836 209.59880371 179.5 209.1875 C178.10418701 208.57225464 178.10418701 208.57225464 176.68017578 207.94458008 C153.68184583 197.69612651 132.85804381 185.4962944 113 170 C112.07832031 169.29230469 111.15664063 168.58460938 110.20703125 167.85546875 C103.99299258 163.00476448 98.22352518 157.70412119 92.45507812 152.34179688 C90.24512459 150.30389341 87.99601503 148.31048883 85.75 146.3125 C78.68054473 139.95564582 72.12834897 133.26759333 66 126 C65.33484375 125.21238281 64.6696875 124.42476562 63.984375 123.61328125 C35.59758188 89.45722982 14.15150409 51.10485937 1.0078125 8.640625 C0.28845036 5.86248671 0.28845036 5.86248671 -2 5 C-1.34 3.35 -0.68 1.7 0 0 Z " fill="#387ED5" transform="translate(204,592)"/>
<path d="M0 0 C24.93453946 3.05157005 51.34849914 19.47618812 72 33 C73.32414574 33.85167603 74.64836373 34.70323973 75.97265625 35.5546875 C95.30187923 48.10334951 112.34523393 63.13755117 129 79 C128.67 79.99 128.34 80.98 128 82 C127.18917969 81.16597656 126.37835937 80.33195312 125.54296875 79.47265625 C119.46500829 73.27553821 113.3379181 67.4215754 106.51953125 62.02734375 C104.22699881 60.18265485 102.08677489 58.25738102 99.9375 56.25 C89.81413165 47.16632894 78.26544614 38.91659186 66 33 C66 32.34 66 31.68 66 31 C65.35160156 30.76410156 64.70320312 30.52820313 64.03515625 30.28515625 C60.02569785 28.58745765 56.26550415 26.50634137 52.4375 24.4375 C45.41718899 20.69145158 38.32001271 17.20081092 31.0625 13.9375 C30.21679443 13.55585693 29.37108887 13.17421387 28.49975586 12.78100586 C25.01437154 11.23403225 21.73042744 9.84029928 18 9 C18 8.34 18 7.68 18 7 C17.14148438 6.87753906 16.28296875 6.75507813 15.3984375 6.62890625 C11.99313102 5.99872884 8.89657899 5.06437721 5.625 3.9375 C4.56539062 3.57527344 3.50578125 3.21304688 2.4140625 2.83984375 C1.61742187 2.56269531 0.82078125 2.28554687 0 2 C0 1.34 0 0.68 0 0 Z " fill="#3A82D8" transform="translate(614,207)"/>
<path d="M0 0 C-2.97894674 2.49287151 -5.44817573 3.57738147 -9.1875 4.5625 C-26.08170082 9.5392341 -42.50325726 16.65898739 -58 25 C-59.19665283 25.63639404 -59.19665283 25.63639404 -60.41748047 26.28564453 C-72.63994236 32.80074209 -84.29676833 39.59827143 -95.2890625 48.05078125 C-96.23789307 48.78014893 -97.18672363 49.5095166 -98.16430664 50.26098633 C-100.07627346 51.73808579 -101.98188695 53.22345072 -103.88061523 54.7175293 C-104.75661377 55.39855713 -105.6326123 56.07958496 -106.53515625 56.78125 C-107.322854 57.40064453 -108.11055176 58.02003906 -108.92211914 58.65820312 C-111 60 -111 60 -114 60 C-110.07417536 55.85353793 -105.83713202 52.45242615 -101.25 49.0625 C-100.54278809 48.53543457 -99.83557617 48.00836914 -99.10693359 47.46533203 C-94.69508028 44.19613154 -90.23432182 41.03730927 -85.6015625 38.0859375 C-83.83787254 36.96348842 -83.83787254 36.96348842 -82 35 C-80.56253481 34.15112652 -79.09909166 33.34604715 -77.625 32.5625 C-73.98437066 30.62239688 -70.37776666 28.65084898 -66.80859375 26.58203125 C-49.59695832 16.70262529 -31.36641978 8.61102277 -12.5625 2.25 C-11.85399902 2.00983154 -11.14549805 1.76966309 -10.41552734 1.5222168 C-6.85001238 0.3814813 -3.74639413 -0.25986549 0 0 Z " fill="#3A82D7" transform="translate(419,205)"/>
<path d="M0 0 C3 1 3 1 4.16796875 2.77734375 C4.50441406 3.49019531 4.84085938 4.20304687 5.1875 4.9375 C5.70376953 6.00291016 5.70376953 6.00291016 6.23046875 7.08984375 C7 9 7 9 7 11 C7.66 11.33 8.32 11.66 9 12 C10.01806641 13.89160156 10.01806641 13.89160156 11.1015625 16.390625 C11.50528076 17.31665527 11.90899902 18.24268555 12.32495117 19.19677734 C12.75396729 20.20434082 13.1829834 21.2119043 13.625 22.25 C14.07012939 23.28979004 14.51525879 24.32958008 14.97387695 25.40087891 C22.71449455 43.62695508 29.08369735 61.80104962 34 81 C34.1949707 81.76054687 34.38994141 82.52109375 34.59082031 83.3046875 C36.42219164 90.61616616 37.46919959 97.45805099 37 105 C35.37147243 102.05662797 34.58458878 99.4703628 34.02734375 96.16015625 C28.25869444 63.84763322 17.08021448 34.04684447 1.98046875 5.01098633 C1 3 1 3 0 0 Z " fill="#387ED3" transform="translate(791,354)"/>
<path d="M0 0 C3.27693325 1.45395462 5.61411026 3.2681956 8.25 5.6875 C9.54164063 6.86892578 9.54164063 6.86892578 10.859375 8.07421875 C13.29689619 10.33659355 15.71933946 12.61479949 18.140625 14.89453125 C19.21908691 15.90930542 19.21908691 15.90930542 20.31933594 16.94458008 C21.76264499 18.3049942 23.20344268 19.66807808 24.64160156 21.03393555 C25.30643555 21.66211182 25.97126953 22.29028809 26.65625 22.9375 C27.25244141 23.50339844 27.84863281 24.06929687 28.46289062 24.65234375 C29.97548996 26.09331933 29.97548996 26.09331933 32 27 C32 27.66 32 28.32 32 29 C32.57886963 29.25740967 33.15773926 29.51481934 33.75415039 29.7800293 C36.20041715 31.10886885 37.91955619 32.60145883 39.93359375 34.51953125 C41.0309082 35.55883789 41.0309082 35.55883789 42.15039062 36.61914062 C42.90513672 37.34294922 43.65988281 38.06675781 44.4375 38.8125 C45.18837891 39.52470703 45.93925781 40.23691406 46.71289062 40.97070312 C50.5271285 44.59708056 54.30064699 48.25651952 58 52 C56.47920927 55.50827915 54.4004327 57.95271646 51.8125 60.75 C48.29931299 64.57433884 44.86720089 68.44639122 41.5078125 72.40625 C40 74 40 74 37 76 C38.53613553 72.43485124 40.6838452 69.96129644 43.3125 67.125 C49.94349996 60.12355951 49.94349996 60.12355951 55 52 C44.15196499 41.79630014 33.28587639 31.61954456 22.1875 21.6875 C17.75637649 17.70454885 13.36972078 13.6750737 9 9.625 C8.3402417 9.01744873 7.6804834 8.40989746 7.00073242 7.78393555 C6.07224487 6.92022339 6.07224487 6.92022339 5.125 6.0390625 C4.57070313 5.52553223 4.01640625 5.01200195 3.4453125 4.48291016 C2 3 2 3 0 0 Z " fill="#3881DA" transform="translate(608,509)"/>
<path d="M0 0 C0 4.14411848 -1.76386635 5.39674972 -4.4375 8.5 C-9.09238322 13.91977013 -10.25211685 16.81466976 -10 24 C-9.57145005 26.31036915 -9.57145005 26.31036915 -9 28 C-8.34 28 -7.68 28 -7 28 C-5.7734375 29.28515625 -5.7734375 29.28515625 -4.375 31.0625 C-2.20048427 33.70685664 0.02794593 35.97999489 2.6484375 38.1796875 C8.17624066 42.94527578 13.20379142 48.18755858 18.2890625 53.41601562 C26.05182112 61.29214787 33.69886493 68.28770681 45 70 C45 70.33 45 70.66 45 71 C36.07452512 71.11678191 31.4816881 68.97493794 25 63 C24.22914063 62.35675781 23.45828125 61.71351563 22.6640625 61.05078125 C18.58716684 57.6390633 18.58716684 57.6390633 17 56 C17 55.34 17 54.68 17 54 C16.12492798 53.61497314 16.12492798 53.61497314 15.23217773 53.22216797 C12.79663072 51.8886507 11.21890352 50.43178687 9.28515625 48.4453125 C8.59873047 47.74792969 7.91230469 47.05054688 7.20507812 46.33203125 C6.49802734 45.60371094 5.79097656 44.87539063 5.0625 44.125 C0.8598151 39.81830732 -3.26708142 35.72922835 -8 32 C-11.41718949 27.34882542 -13.63909495 23.30563735 -13.6171875 17.390625 C-11.83877173 10.50207786 -4.94500545 4.8542714 0 0 Z " fill="#3883DC" transform="translate(462,667)"/>
<path d="M0 0 C0.33 0 0.66 0 1 0 C1.00364563 0.72725784 1.00729126 1.45451569 1.01104736 2.20381165 C1.04912468 9.10249905 1.1061983 16.00080469 1.18390274 22.8991518 C1.22318823 26.44458512 1.25546812 29.98977712 1.27099609 33.53540039 C1.28922516 37.62425375 1.33925761 41.71220885 1.390625 45.80078125 C1.39185364 47.05643387 1.39308228 48.31208649 1.39434814 49.60578918 C1.59015566 61.52599675 4.46002837 71.39870003 13 80 C24.24314094 89.53050452 36.67153621 95.99330565 50 102 C50 102.66 50 103.32 50 104 C45.37746386 103.36640914 41.49613526 101.51765012 37.375 99.4375 C36.31321533 98.90177368 36.31321533 98.90177368 35.22998047 98.35522461 C21.56655069 91.28787989 6.59114959 80.78651556 0.84803772 66.03834534 C-0.78173204 60.19921433 -0.48615388 54.2562752 -0.390625 48.2421875 C-0.38314715 46.84401262 -0.37746154 45.44582713 -0.37347412 44.04763794 C-0.35833872 40.4011037 -0.31916535 36.75522595 -0.2746582 33.10894775 C-0.23344093 29.37480546 -0.21540717 25.64055512 -0.1953125 21.90625 C-0.15265592 14.60387021 -0.08455615 7.30202774 0 0 Z " fill="#357FD8" transform="translate(293,548)"/>
<path d="M0 0 C0.99 0.495 0.99 0.495 2 1 C-1.50657531 4.60519774 -5.05563971 8.10016698 -8.875 11.375 C-16.1709869 17.68313568 -22.81458489 24.60796035 -29 32 C-29.45890625 32.5451123 -29.9178125 33.09022461 -30.390625 33.65185547 C-38.09045448 42.8318605 -45.15105496 52.27190988 -51.80712891 62.23144531 C-54.02924951 65.52596877 -56.34893625 68.75205754 -58.66015625 71.984375 C-59.95426801 73.93120203 -61.00533388 75.8869294 -62 78 C-62.33 77.01 -62.66 76.02 -63 75 C-61.69802621 72.47837863 -60.35245913 70.18379954 -58.8125 67.8125 C-58.36342285 67.10851074 -57.9143457 66.40452148 -57.45166016 65.67919922 C-52.36274407 57.82339217 -46.74054654 50.3863502 -41 43 C-40.28972656 42.07445312 -39.57945312 41.14890625 -38.84765625 40.1953125 C-34.3843241 34.48151715 -29.56059848 29.15455806 -24.625 23.8515625 C-21.77061018 20.75081165 -19.03365782 17.56860549 -16.33984375 14.328125 C-15 13 -15 13 -13 13 C-13 12.34 -13 11.68 -13 11 C-11.42578125 9.4140625 -11.42578125 9.4140625 -9.3125 7.625 C-8.58675781 7.00753906 -7.86101562 6.39007813 -7.11328125 5.75390625 C-4.76550888 3.80538537 -2.40435225 1.8784002 0 0 Z " fill="#397FD4" transform="translate(301,268)"/>
<path d="M0 0 C2.49963499 2.47739624 4.96906517 4.96676803 7.3671875 7.54296875 C28.41390906 29.73709725 57.27404175 38.29622029 86 46 C86 46.33 86 46.66 86 47 C79.72290101 47.2869531 74.66251331 46.37677839 68.6875 44.5 C67.82374756 44.23372803 66.95999512 43.96745605 66.07006836 43.69311523 C42.26104249 36.13314926 13.5697159 24.1638693 0 2 C0 1.34 0 0.68 0 0 Z " fill="#3781DB" transform="translate(295,546)"/>
<path d="M0 0 C-7.10369369 0.23290799 -13.95302041 -0.32544625 -20.99145508 -1.20068359 C-38.16553678 -3.21634217 -55.48624112 -3.13658739 -72.75 -3.0625 C-74.82682182 -3.05746626 -76.90364484 -3.05290673 -78.98046875 -3.04882812 C-83.98700987 -3.0379909 -88.99349092 -3.02083374 -94 -3 C-94 -3.33 -94 -3.66 -94 -4 C-71.51873626 -7.49511083 -19.66616139 -13.11077426 0 0 Z " fill="#3982DB" transform="translate(504,342)"/>
<path d="M0 0 C6.74811905 1.16031006 11.27369875 5.8721607 15.83984375 10.65234375 C17.52227271 12.37608235 19.26029257 13.94244221 21.08984375 15.5078125 C25.88242162 19.63579461 30.47141659 23.9770807 35.07324219 28.31494141 C38.41364034 31.45424254 41.78762671 34.48183525 45.33984375 37.3828125 C48.86614934 40.4414993 50.30165825 42.93666324 51.58984375 47.4453125 C51.77734375 51.3828125 51.77734375 51.3828125 51.58984375 54.4453125 C51.25984375 54.4453125 50.92984375 54.4453125 50.58984375 54.4453125 C50.34234375 53.2490625 50.09484375 52.0528125 49.83984375 50.8203125 C48.10174048 44.01174244 44.39617114 39.97462719 38.98046875 35.7421875 C38.5215625 35.31421875 38.06265625 34.88625 37.58984375 34.4453125 C37.58984375 33.7853125 37.58984375 33.1253125 37.58984375 32.4453125 C37.0175 32.20167969 36.44515625 31.95804687 35.85546875 31.70703125 C33.18550837 30.22013952 31.45155368 28.46447342 29.33984375 26.2578125 C25.91702627 22.756823 22.42169371 19.45936547 18.703125 16.27734375 C15.36277457 13.38155012 12.13159849 10.36531171 8.88671875 7.36328125 C3.85848141 3.16453204 -0.06326697 3.05004359 -6.41015625 3.4453125 C-9.30102599 3.86981878 -9.30102599 3.86981878 -11.41015625 4.4453125 C-8.3106641 -0.06303971 -5.1122489 -0.2252092 0 0 Z " fill="#3983DC" transform="translate(679.41015625,430.5546875)"/>
<path d="M0 0 C0.33 0.66 0.66 1.32 1 2 C1.5878125 2.29003906 2.175625 2.58007812 2.78125 2.87890625 C5.44947774 4.22711287 7.30160925 5.91131652 9.5 7.9375 C10.37398437 8.73800781 11.24796875 9.53851563 12.1484375 10.36328125 C13.08945312 11.23339844 14.03046875 12.10351562 15 13 C17.04015326 14.87664974 19.08259354 16.75080312 21.125 18.625 C21.63595215 19.09462158 22.1469043 19.56424316 22.67333984 20.0480957 C26.07515428 23.16962521 29.51999954 26.23311164 33.0078125 29.2578125 C35.36020635 31.31500399 37.68034966 33.40596915 40 35.5 C47.43096675 42.2061743 47.43096675 42.2061743 55.05078125 48.6953125 C55.69402344 49.22898437 56.33726562 49.76265625 57 50.3125 C57.5775 50.78300781 58.155 51.25351562 58.75 51.73828125 C60 53 60 53 60 55 C60.99 55.495 60.99 55.495 62 56 C60.68 55.67 59.36 55.34 58 55 C58 54.34 58 53.68 58 53 C57.44828125 52.76667969 56.8965625 52.53335938 56.328125 52.29296875 C53.38744733 50.65980716 51.20922749 48.60660793 48.75 46.3125 C45.53350795 43.3348986 42.31425819 40.36916153 39 37.5 C34.82131921 33.86934292 30.74183696 30.13281424 26.65234375 26.40234375 C24.47539004 24.43058156 22.28161326 22.48634663 20.0625 20.5625 C16.0329385 17.06687626 12.11677583 13.45155588 8.21118164 9.81860352 C6.09027857 7.85758337 4.01495196 6.01039706 1.640625 4.359375 C1.09921875 3.91078125 0.5578125 3.4621875 0 3 C0 2.01 0 1.02 0 0 Z " fill="#3782DB" transform="translate(618,490)"/>
<path d="M0 0 C0.33 0 0.66 0 1 0 C0.69195 4.20867142 0.37777479 8.41686412 0.0625 12.625 C-0.02451172 13.81480469 -0.11152344 15.00460937 -0.20117188 16.23046875 C-0.28818359 17.38417969 -0.37519531 18.53789062 -0.46484375 19.7265625 C-0.58267212 21.31331787 -0.58267212 21.31331787 -0.70288086 22.93212891 C-1 26 -1 26 -1.5 28.75390625 C-2.18947788 33.23012589 -2.34784982 37.68933146 -2.53515625 42.2109375 C-2.57813339 43.17907379 -2.62111053 44.14721008 -2.66539001 45.14468384 C-2.80118276 48.22131726 -2.93191269 51.29814168 -3.0625 54.375 C-3.15396227 56.46746257 -3.24575549 58.5599107 -3.33789062 60.65234375 C-3.56242707 65.76806989 -3.78242476 70.88397326 -4 76 C-4.33 76 -4.66 76 -5 76 C-8.48141399 55.16721869 -9.58095298 19.16190597 0 0 Z " fill="#3B84DA" transform="translate(198,448)"/>
<path d="M0 0 C1.92972656 0.09087891 1.92972656 0.09087891 3.8984375 0.18359375 C8.84132846 0.41424034 13.78458633 0.63597292 18.72802734 0.85449219 C20.87165722 0.9498215 23.01521598 1.04676679 25.15869141 1.14550781 C41.78121195 1.90495164 58.3608789 2.12781173 75 2 C72.40514413 4.59485587 71.21345851 4.31204654 67.59375 4.44921875 C66.4701709 4.49328857 65.3465918 4.5373584 64.18896484 4.58276367 C62.36292725 4.63460815 62.36292725 4.63460815 60.5 4.6875 C59.24783691 4.72657471 57.99567383 4.76564941 56.70556641 4.8059082 C40.58371694 5.22227619 24.48367196 4.71139148 8.4375 3.0625 C7.68710449 2.98797607 6.93670898 2.91345215 6.16357422 2.83666992 C4.43175195 2.63400987 2.7125248 2.32793028 1 2 C0.67 1.34 0.34 0.68 0 0 Z " fill="#3B81D7" transform="translate(468,823)"/>
<path d="M0 0 C0 0.66 0 1.32 0 2 C-2.04534461 3.70135484 -4.09116879 5.26510603 -6.25 6.8125 C-6.91604248 7.29388428 -7.58208496 7.77526855 -8.26831055 8.27124023 C-25.45531085 20.55834296 -43.3730164 31.44931682 -62.375 40.6875 C-63.08293701 41.03917236 -63.79087402 41.39084473 -64.52026367 41.75317383 C-68.165113 43.47453777 -70.16147182 44.25164826 -74 43 C-72.37522786 42.18761393 -70.75042423 41.37529079 -69.12548828 40.56323242 C-67.68584136 39.84307824 -66.24672914 39.12185433 -64.80810547 38.3996582 C-61.21940734 36.59986583 -57.62649723 34.81303203 -54.0078125 33.07421875 C-35.91184679 24.32427104 -19.23670809 13.38193115 -3.453125 0.9609375 C-2 0 -2 0 0 0 Z " fill="#377FD5" transform="translate(712,757)"/>
<path d="M0 0 C0.66 0.33 1.32 0.66 2 1 C-2.32600108 6.065354 -6.81790205 10.95629515 -11.375 15.8125 C-16.15918299 20.91767742 -20.64434394 26.14917993 -25.015625 31.61328125 C-27.29048962 34.3493881 -29.75275919 36.7850644 -32.3125 39.25 C-34.9181718 41.95217816 -37.11132583 44.95037459 -39.3828125 47.93359375 C-43.30116133 52.94037282 -48.15134609 56.93383779 -53 61 C-51.40207486 57.13758666 -48.77851934 54.41778974 -45.9375 51.4375 C-42.36822999 47.62636383 -38.94298165 43.77521004 -35.6875 39.6875 C-30.83510691 33.65479507 -25.53784732 28.07767673 -20.234375 22.4453125 C-14.37334398 16.21922298 -8.94627854 9.75601659 -3.69921875 3.00390625 C-2 1 -2 1 0 0 Z " fill="#3882DB" transform="translate(500,598)"/>
<path d="M0 0 C-2.77622524 2.77622524 -4.93927324 2.5878203 -8.8125 3.0625 C-10.03582031 3.21847656 -11.25914062 3.37445313 -12.51953125 3.53515625 C-14.01242971 3.69569962 -15.50599785 3.85007482 -17 4 C-17.87495117 4.09047607 -18.74990234 4.18095215 -19.65136719 4.27416992 C-29.34713614 5.15295716 -39.03284155 5.18614058 -48.76025391 5.18530273 C-51.65411402 5.18752233 -54.54761161 5.2058375 -57.44140625 5.22460938 C-59.28645704 5.22753815 -61.13150962 5.22952639 -62.9765625 5.23046875 C-64.27021225 5.24124702 -64.27021225 5.24124702 -65.58999634 5.25224304 C-71.65668987 5.22887342 -71.65668987 5.22887342 -75 3 C-73.82308594 2.98018066 -72.64617187 2.96036133 -71.43359375 2.93994141 C-41.93431838 2.49744415 -41.93431838 2.49744415 -12.51953125 0.40234375 C-8.32494298 -0.01844952 -4.21405193 -0.07290747 0 0 Z " fill="#3983DC" transform="translate(500,496)"/>
<path d="M0 0 C0.33 0.66 0.66 1.32 1 2 C-0.19995117 4.73046875 -0.19995117 4.73046875 -2.04296875 8.1875 C-2.36783768 8.80463867 -2.6927066 9.42177734 -3.02742004 10.05761719 C-4.07327491 12.04249001 -5.12950267 14.02157625 -6.1875 16 C-10.55147895 24.19072758 -14.74344928 32.28999543 -18 41 C-18.50402344 42.20785156 -19.00804687 43.41570312 -19.52734375 44.66015625 C-22.65526223 52.20701772 -25.24436053 59.73083872 -27.35131836 67.62915039 C-27.846325 69.43527862 -28.41667377 71.22043229 -29 73 C-29.99 73.495 -29.99 73.495 -31 74 C-30.43743408 67.34296999 -28.73275016 61.53103819 -26.5 55.25 C-26.14542725 54.24501465 -25.79085449 53.2400293 -25.42553711 52.20458984 C-20.31229181 37.99926793 -14.01420258 24.42603296 -6.74243164 11.20166016 C-4.70321187 7.80210873 -4.70321187 7.80210873 -4 4 C-3.34 4 -2.68 4 -2 4 C-1.34 2.68 -0.68 1.36 0 0 Z " fill="#397FD4" transform="translate(236,347)"/>
<path d="M0 0 C0.495 0.99 0.495 0.99 1 2 C-5.82373691 11.46859617 -13.257176 20.27489576 -21 29 C-21.46035645 29.51965332 -21.92071289 30.03930664 -22.39501953 30.57470703 C-30.84591459 40.0950939 -30.84591459 40.0950939 -34 43 C-34.66 43 -35.32 43 -36 43 C-36 43.66 -36 44.32 -36 45 C-37.36328125 46.41015625 -37.36328125 46.41015625 -39.3125 48.0625 C-40.03050781 48.67351563 -40.74851562 49.28453125 -41.48828125 49.9140625 C-45.9703703 53.6363573 -50.47414044 57.33105871 -55 61 C-55.66 60.67 -56.32 60.34 -57 60 C-54.83472464 57.97765714 -52.66818867 55.95671657 -50.5 53.9375 C-49.85361572 53.33550781 -49.20723145 52.73351562 -48.54125977 52.11328125 C-45.38615838 49.18368579 -42.22053242 46.28667763 -38.9375 43.5 C-35.14657169 40.23053126 -31.60851731 36.71768901 -28.0625 33.1875 C-27.48169678 32.61128906 -26.90089355 32.03507813 -26.30249023 31.44140625 C-23.282203 28.50102003 -23.282203 28.50102003 -21 25 C-20.34 25 -19.68 25 -19 25 C-18.66742187 24.20335937 -18.66742187 24.20335937 -18.328125 23.390625 C-16.53585697 20.16454255 -14.16411996 17.51709204 -11.75 14.75 C-7.63109362 9.96360019 -3.71064131 5.11466775 0 0 Z " fill="#367CD2" transform="translate(770,695)"/>
<path d="M0 0 C0.66 0 1.32 0 2 0 C2.25652344 0.53367187 2.51304687 1.06734375 2.77734375 1.6171875 C12.33151516 20.21082749 30.27124826 30.11418221 48.93359375 37.74194336 C53.90022422 39.80044844 53.90022422 39.80044844 55 42 C47.71256161 40.72617947 41.97903445 38.26772904 35.5 34.75 C34.61441406 34.28464844 33.72882813 33.81929687 32.81640625 33.33984375 C20.85887747 26.96600682 20.85887747 26.96600682 16 23 C16 22.34 16 21.68 16 21 C15.43410156 20.77957031 14.86820312 20.55914063 14.28515625 20.33203125 C11.28351669 18.58235759 9.60353906 16.39596509 7.4375 13.6875 C6.67308594 12.74261719 5.90867187 11.79773438 5.12109375 10.82421875 C0 4.00552486 0 4.00552486 0 0 Z " fill="#3882DC" transform="translate(295,513)"/>
<path d="M0 0 C5.41690547 0.62502755 10.020096 2.39702877 15 4.5 C15.8350708 4.85239746 16.6701416 5.20479492 17.53051758 5.56787109 C25.2671465 8.93908993 32.13109339 13.12964813 39 18 C39.87011719 18.60457031 40.74023438 19.20914062 41.63671875 19.83203125 C45.60387349 22.67758203 45.60387349 22.67758203 47 24 C47 24.66 47 25.32 47 26 C47.99 26.33 48.98 26.66 50 27 C51.03789581 28.64333504 52.03567924 30.31243867 53 32 C53.515625 32.515625 54.03125 33.03125 54.5625 33.5625 C56.25062669 35.25062669 57.10359937 36.79347537 58 39 C58 39.99 58 40.98 58 42 C57.34 42 56.68 42 56 42 C55.525625 40.88625 55.05125 39.7725 54.5625 38.625 C44.93678175 19.6743672 22.49744343 9.71689426 3.37890625 3.0078125 C1 2 1 2 0 0 Z " fill="#3881DA" transform="translate(542,351)"/>
<path d="M0 0 C8.32400267 8.32400267 5.09274376 38.69839727 5.125 49.75 C5.12967285 50.86938965 5.1343457 51.9887793 5.13916016 53.14208984 C5.13706543 54.20379395 5.1349707 55.26549805 5.1328125 56.359375 C5.13168457 57.30264648 5.13055664 58.24591797 5.12939453 59.21777344 C4.99029084 62.20876526 4.54633587 65.0583584 4 68 C3.67 68 3.34 68 3 68 C2.98018066 66.99960693 2.96036133 65.99921387 2.93994141 64.96850586 C2.58147127 47.43218405 2.2106223 29.9706652 0.40234375 12.51171875 C-0.02014743 8.31985589 -0.07269447 4.21143286 0 0 Z " fill="#3980D6" transform="translate(828,460)"/>
<path d="M0 0 C0.33 0 0.66 0 1 0 C2.1361122 8.33148944 -2.23844847 15.24955001 -7.05078125 21.78515625 C-14.33030777 30.35767149 -22.9154002 35.78308004 -34 38 C-35.32 38 -36.64 38 -38 38 C-38.99 40.475 -38.99 40.475 -40 43 C-40.33 43 -40.66 43 -41 43 C-41 41.02 -41 39.04 -41 37 C-37.7576166 35.86516581 -34.61189036 34.91590958 -31.25 34.1875 C-21.07440556 31.67764975 -12.47615357 26.20239022 -6.8125 17.375 C-3.68225064 11.86978933 -1.76988564 6.05925555 0 0 Z " fill="#3882DA" transform="translate(654,292)"/>
<path d="M0 0 C0.33 0 0.66 0 1 0 C2.16914288 19.40777186 -1.81415086 38.48814157 -6.43823242 57.2644043 C-7.13410473 60.18759251 -7.13410473 60.18759251 -7 64 C-8.485 64.495 -8.485 64.495 -10 65 C-9.35866673 59.28630361 -8.38020056 53.74608418 -7.1875 48.125 C-5.5004317 39.92899223 -4.08897894 31.70709511 -2.8125 23.4375 C-2.64580811 22.36838379 -2.47911621 21.29926758 -2.30737305 20.19775391 C-1.29006161 13.47942291 -0.53333954 6.77383213 0 0 Z " fill="#3981D7" transform="translate(830,529)"/>
<path d="M0 0 C1.3125195 3.6067061 0.70661768 5.40522147 -0.88671875 8.83203125 C-1.3247583 9.78464844 -1.76279785 10.73726562 -2.21411133 11.71875 C-2.94343872 13.25015625 -2.94343872 13.25015625 -3.6875 14.8125 C-4.18209717 15.86824219 -4.67669434 16.92398438 -5.1862793 18.01171875 C-8.76363147 25.57394822 -12.48184183 33.06308641 -16.3125 40.5 C-16.79098389 41.43561768 -17.26946777 42.37123535 -17.76245117 43.33520508 C-20.71664427 48.97057464 -24.00723064 54.04430469 -28 59 C-28.33 58.34 -28.66 57.68 -29 57 C-27.59094306 54.38883185 -26.12450258 51.89282183 -24.5625 49.375 C-19.57438105 41.11687253 -15.15849395 32.70062793 -11 24 C-10.64631348 23.26120605 -10.29262695 22.52241211 -9.92822266 21.76123047 C-6.49044461 14.55950658 -3.10691519 7.35143933 0 0 Z " fill="#387ED4" transform="translate(811,620)"/>
<path d="M0 0 C5.52436232 -0.22912102 10.75828787 0.04559148 16.21875 0.9375 C24.91111096 2.22496101 33.60552504 2.68145719 42.375 3.125 C43.99742624 3.21167223 45.61982245 3.29890865 47.2421875 3.38671875 C51.16114379 3.59762744 55.08042264 3.80098146 59 4 C59.495 4.99 59.495 4.99 60 6 C47.10290627 6.3653951 34.39758022 5.86950456 21.5625 4.625 C20.55363235 4.53017838 20.55363235 4.53017838 19.52438354 4.43344116 C12.77102849 3.78986687 6.48138373 2.99119117 0 1 C0 0.67 0 0.34 0 0 Z " fill="#3B85DE" transform="translate(387,465)"/>
<path d="M0 0 C1.25466064 0.03456299 2.50932129 0.06912598 3.80200195 0.10473633 C4.97593506 0.14880615 6.14986816 0.19287598 7.359375 0.23828125 C8.40061523 0.27606689 9.44185547 0.31385254 10.51464844 0.3527832 C13.25 0.6875 13.25 0.6875 17.25 2.6875 C-2.22 2.6875 -21.69 2.6875 -41.75 2.6875 C-39.33690953 0.27440953 -38.63826388 0.39279832 -35.32421875 0.23828125 C-33.93154785 0.17217651 -33.93154785 0.17217651 -32.51074219 0.10473633 C-31.49657227 0.07017334 -30.48240234 0.03561035 -29.4375 0 C-28.39110352 -0.03907471 -27.34470703 -0.07814941 -26.26660156 -0.1184082 C-17.50296894 -0.38224156 -8.76230596 -0.26672431 0 0 Z " fill="#3B84DA" transform="translate(525.75,190.3125)"/>
<path d="M0 0 C0.33 0 0.66 0 1 0 C1.76503447 12.75057445 0.18767595 20.39317961 -8.3125 30.1875 C-14.47996262 36.67850165 -20.85232668 42.06821385 -28.3125 47 C-28.92375732 47.41064697 -29.53501465 47.82129395 -30.16479492 48.24438477 C-31.72584998 49.24663708 -33.3599262 50.13307408 -35 51 C-35.99 50.67 -36.98 50.34 -38 50 C-36.71029297 49.21689453 -36.71029297 49.21689453 -35.39453125 48.41796875 C-21.1787901 39.63318787 -5.91353624 29.64280877 -1.48828125 12.5390625 C-0.6888672 8.38210946 -0.26053797 4.22251193 0 0 Z " fill="#3780D8" transform="translate(601,397)"/>
<path d="M0 0 C3.25234474 1.08411491 3.9217165 1.77196331 6.0625 4.3125 C6.98675781 5.40498047 6.98675781 5.40498047 7.9296875 6.51953125 C8.61289062 7.33808594 9.29609375 8.15664063 10 9 C10.74507812 9.87011719 11.49015625 10.74023438 12.2578125 11.63671875 C19.20252598 19.82076213 25.67730179 28.32846553 32 37 C32.70253906 37.96164062 33.40507813 38.92328125 34.12890625 39.9140625 C37.20474735 44.29588717 37.20474735 44.29588717 38 46 C37.67 46.99 37.34 47.98 37 49 C35.87464844 47.38544922 35.87464844 47.38544922 34.7265625 45.73828125 C25.75039701 32.90780962 16.62521959 20.5359527 6 9 C0 2.3443299 0 2.3443299 0 0 Z " fill="#387FD5" transform="translate(744,289)"/>
<path d="M0 0 C0.33 0 0.66 0 1 0 C1.17409588 4.98029015 1.30055003 9.95878001 1.38452148 14.94140625 C1.41955043 16.63312663 1.46719144 18.32463774 1.52807617 20.015625 C2.08479453 35.88443744 2.08479453 35.88443744 -2.18359375 40.78125 C-3.42810852 41.88608559 -4.69925068 42.96195862 -6 44 C-6.96649941 45.02444832 -7.91592604 46.06539717 -8.84375 47.125 C-9.7203125 48.07375 -10.596875 49.0225 -11.5 50 C-15.27326511 54.08813579 -18.97424744 58.22448322 -22.5625 62.4765625 C-24 64 -24 64 -27 66 C-25.52459329 62.63850636 -23.62080185 60.30364448 -21.125 57.625 C-16.65688029 52.75794103 -12.34843493 47.77315101 -8.07470703 42.73486328 C-4.1190827 38.08697191 -4.1190827 38.08697191 -2.36938477 36.80908203 C-0.15618842 33.88524803 -0.51834403 30.57978262 -0.48828125 27.05078125 C-0.47033005 26.27816452 -0.45237885 25.50554779 -0.43388367 24.70951843 C-0.37973896 22.243901 -0.34587269 19.77847757 -0.3125 17.3125 C-0.27933048 15.63994694 -0.24484115 13.96741949 -0.20898438 12.29492188 C-0.12401051 8.1967545 -0.0572198 4.09864506 0 0 Z " fill="#357ED7" transform="translate(602,449)"/>
<path d="M0 0 C0 0.66 0 1.32 0 2 C-1.15113281 2.38929688 -2.30226563 2.77859375 -3.48828125 3.1796875 C-18.70396234 8.46880213 -34.00591469 14.69274928 -46.1875 25.50390625 C-48 27 -48 27 -51 28 C-49.64363053 23.9308916 -46.88912055 22.47070872 -43.5 20.125 C-42.86143066 19.67737305 -42.22286133 19.22974609 -41.56494141 18.76855469 C-36.86497724 15.51171826 -32.10469945 12.58320715 -27 10 C-26.07832031 9.50886719 -25.15664063 9.01773437 -24.20703125 8.51171875 C-7.88058313 0 -7.88058313 0 0 0 Z " fill="#3882DB" transform="translate(358,349)"/>
<path d="M0 0 C0.33 0 0.66 0 1 0 C1.20753906 0.82242187 1.41507813 1.64484375 1.62890625 2.4921875 C5.04599802 14.87378361 11.02809889 24.21810817 21.93359375 31.24609375 C27.02431547 34.04240568 32.29780826 35.11195375 38 36 C38 36.33 38 36.66 38 37 C29.58436663 37.85582712 23.21633506 35.30923635 16 31 C8.8860236 24.49013873 0.78090098 15.68099326 -0.23828125 5.65625 C-0.24824813 3.76918738 -0.13688131 1.882118 0 0 Z " fill="#3780D9" transform="translate(665,292)"/>
<path d="M0 0 C0.68835938 0.00451172 1.37671875 0.00902344 2.0859375 0.01367188 C3.76566335 0.02533664 5.44534375 0.04326729 7.125 0.0625 C7.125 0.3925 7.125 0.7225 7.125 1.0625 C4.27120927 1.5232843 1.41709364 1.98173139 -1.4375 2.4375 C-2.29633789 2.57470459 -3.15517578 2.71190918 -4.04003906 2.85327148 C-10.53985011 3.87977925 -17.04328809 4.75895956 -23.578125 5.53515625 C-26.96914084 6.01019033 -26.96914084 6.01019033 -30.55078125 7.11328125 C-34.13478083 8.13667949 -37.16715869 8.21384046 -40.875 8.0625 C-40.545 7.4025 -40.215 6.7425 -39.875 6.0625 C-37.4699707 5.39233398 -37.4699707 5.39233398 -34.30078125 4.80859375 C-32.58665039 4.48665039 -32.58665039 4.48665039 -30.83789062 4.15820312 C-29.03094727 3.83239258 -29.03094727 3.83239258 -27.1875 3.5 C-26.00220703 3.27892578 -24.81691406 3.05785156 -23.59570312 2.83007812 C-20.35742085 2.22891636 -17.11809181 1.6371299 -13.875 1.0625 C-12.83609619 0.8763916 -11.79719238 0.6902832 -10.72680664 0.49853516 C-7.14182957 -0.0496002 -3.6151886 -0.04554017 0 0 Z " fill="#3A83D8" transform="translate(475.875,192.9375)"/>
<path d="M0 0 C2.36143342 2.19523283 3.99658402 4.45005723 5.6875 7.1875 C12.48416158 17.4238346 22.06776967 24.53388484 33 30 C33 30.66 33 31.32 33 32 C27.91467086 30.59901891 24.25034622 28.38816411 20.0625 25.3125 C19.44568359 24.86261719 18.82886719 24.41273438 18.19335938 23.94921875 C10.29310175 18.09717607 4.2992051 12.00785831 0 3 C0 2.01 0 1.02 0 0 Z " fill="#3782DA" transform="translate(296,414)"/>
<path d="M0 0 C-0.33 0.66 -0.66 1.32 -1 2 C-3.05371094 2.67016602 -3.05371094 2.67016602 -5.734375 3.25390625 C-6.70117188 3.46853516 -7.66796875 3.68316406 -8.6640625 3.90429688 C-9.68242188 4.12150391 -10.70078125 4.33871094 -11.75 4.5625 C-12.75289062 4.78357422 -13.75578125 5.00464844 -14.7890625 5.23242188 C-17.52387544 5.83270243 -20.26002699 6.42375235 -23 7 C-23.87841553 7.1861084 -24.75683105 7.3722168 -25.66186523 7.56396484 C-28.26103672 8.04868034 -30.671036 8.09771952 -33.3125 8.0625 C-34.19550781 8.05347656 -35.07851563 8.04445313 -35.98828125 8.03515625 C-36.65214844 8.02355469 -37.31601562 8.01195312 -38 8 C-38 7.67 -38 7.34 -38 7 C-30.52058632 5.05789567 -23.74152536 3.60636312 -16 4 C-15.67 3.01 -15.34 2.02 -15 1 C-9.9752761 0.37470103 -5.07471573 -0.13012092 0 0 Z " fill="#3A82D9" transform="translate(599,815)"/>
<path d="M0 0 C0.99 0.33 1.98 0.66 3 1 C2.18208984 1.89138672 2.18208984 1.89138672 1.34765625 2.80078125 C-2.76975781 7.32641756 -6.75440452 11.89752624 -10.5625 16.6875 C-14.31595003 21.33966342 -18.33344734 25.27438712 -23 29 C-23 26 -23 26 -21.34765625 24.125 C-20.59355469 23.42375 -19.83945312 22.7225 -19.0625 22 C-13.90029173 17.01663989 -9.46897187 11.60134192 -5 6 C-3.34306429 3.99159308 -1.6721382 1.99577786 0 0 Z " fill="#3882DC" transform="translate(534,708)"/>
<path d="M0 0 C2.8125 -0.25 2.8125 -0.25 6 0 C8.73965855 2.85188552 9.486778 5.43389001 10.25 9.25 C11.78800294 15.18795981 14.21842213 19.12919887 19 23 C21.91334576 24.63499373 24.84382848 25.91215857 28 27 C28 27.33 28 27.66 28 28 C21.07744629 27.85271162 16.83663191 24.83663191 12 20 C7.95864682 14.4678883 6.59060052 7.55520216 5 1 C3.35 1 1.7 1 0 1 C0 0.67 0 0.34 0 0 Z " fill="#3880D8" transform="translate(727,360)"/>
<path d="M0 0 C0.66 0.33 1.32 0.66 2 1 C0.96552734 2.10794922 0.96552734 2.10794922 -0.08984375 3.23828125 C-5.57746082 9.15013786 -10.85530336 15.15640363 -15.91796875 21.44140625 C-18.85057656 25.04526763 -21.90924631 28.53159795 -25 32 C-25.33 31.01 -25.66 30.02 -26 29 C-25.38253906 28.33355469 -24.76507812 27.66710937 -24.12890625 26.98046875 C-19.71084103 22.17237646 -15.40763989 17.34068252 -11.3125 12.25 C-7.78798162 7.87884465 -4.08578736 3.84931092 0 0 Z " fill="#3780DA" transform="translate(641,588)"/>
<path d="M0 0 C9 2 9 2 18 4 C18 4.66 18 5.32 18 6 C19.42892578 6.29003906 19.42892578 6.29003906 20.88671875 6.5859375 C22.76810547 6.97652344 22.76810547 6.97652344 24.6875 7.375 C25.92886719 7.63023437 27.17023438 7.88546875 28.44921875 8.1484375 C31.47403318 8.87386054 34.16059255 9.75131221 37 11 C37 11.33 37 11.66 37 12 C24.10042521 11.30895135 11.68852773 6.20228033 0 1 C0 0.67 0 0.34 0 0 Z " fill="#3A84DD" transform="translate(344,652)"/>
<path d="M0 0 C0 4.30096054 -2.59500667 6.07903423 -5.4375 9 C-10.93182898 14.78722968 -16.01089123 20.76870497 -21 27 C-22.65760945 29.00780863 -24.32788293 31.00424737 -26 33 C-26.33 32.01 -26.66 31.02 -27 30 C-26.35933594 29.31035156 -25.71867188 28.62070312 -25.05859375 27.91015625 C-20.20937737 22.64178257 -15.5985004 17.37919165 -11.375 11.58203125 C-10.92125 11.05996094 -10.4675 10.53789063 -10 10 C-9.34 10 -8.68 10 -8 10 C-7.690625 9.195625 -7.690625 9.195625 -7.375 8.375 C-5.42003056 4.9982346 -2.81776305 2.69525161 0 0 Z " fill="#3780DA" transform="translate(604,630)"/>
<path d="M0 0 C-2.10116601 2.10116601 -3.39921453 2.63802511 -6.125 3.6875 C-13.83220053 7.04007037 -18.99607509 12.50838609 -23.7734375 19.30078125 C-25 21 -25 21 -27 23 C-26.33877762 15.24773763 -21.55218199 11.04404151 -16 6 C-10.86026832 2.42066622 -6.40350902 -0.42536774 0 0 Z " fill="#3882DA" transform="translate(696,339)"/>
<path d="M0 0 C0.33 0 0.66 0 1 0 C1.51076821 4.10289959 2.00659735 8.20747883 2.5 12.3125 C2.64308594 13.46041016 2.78617188 14.60832031 2.93359375 15.79101562 C3.77957034 22.90124747 4.1961224 29.84062443 4 37 C-1.24840764 31.75159236 -0.107379 18.89259437 -0.13623047 11.79638672 C-0.12007405 7.863352 -0.07186167 3.93243046 0 0 Z " fill="#3A80D6" transform="translate(194,526)"/>
<path d="M0 0 C0.66 0.33 1.32 0.66 2 1 C1.29875 1.75023437 0.5975 2.50046875 -0.125 3.2734375 C-5.51045701 9.07301398 -10.6607914 14.91322938 -15.44140625 21.234375 C-16.21291016 22.10835937 -16.21291016 22.10835937 -17 23 C-17.66 23 -18.32 23 -19 23 C-19.33 23.66 -19.66 24.32 -20 25 C-19.43928229 21.05688837 -17.55781148 19.10560273 -14.875 16.25 C-13.66070313 14.94095703 -13.66070313 14.94095703 -12.421875 13.60546875 C-11.62265625 12.74566406 -10.8234375 11.88585937 -10 11 C-8.15706292 8.90735198 -6.33119587 6.80106962 -4.5078125 4.69140625 C-3.05861014 3.0657466 -1.555849 1.52324139 0 0 Z " fill="#3982DB" transform="translate(558,682)"/>
<path d="M0 0 C3.39090216 0.59971575 6.42766562 1.44989855 9.6171875 2.7421875 C10.47183594 3.08636719 11.32648438 3.43054688 12.20703125 3.78515625 C13.08746094 4.14480469 13.96789062 4.50445312 14.875 4.875 C15.74769531 5.22691406 16.62039063 5.57882812 17.51953125 5.94140625 C22.37170973 7.90416717 27.19728395 9.91925926 32 12 C27.50544731 13.43112916 24.21106993 12.01585242 19.9375 10.4375 C19.1854126 10.16663574 18.4333252 9.89577148 17.65844727 9.61669922 C11.44328183 7.31084826 5.66571118 4.45082193 0 1 C0 0.67 0 0.34 0 0 Z " fill="#3883DC" transform="translate(330,446)"/>
<path d="M0 0 C4.47485135 1.37219762 8.47260264 3.15993539 12.625 5.3125 C18.95154295 8.55058144 25.39308094 11.37417319 32 14 C28.55425311 15.45947675 26.24630646 14.60855711 22.87182617 13.2590332 C22.23349854 12.98792725 21.5951709 12.71682129 20.9375 12.4375 C20.27790283 12.16446045 19.61830566 11.8914209 18.9387207 11.61010742 C3.34767973 5.0215196 3.34767973 5.0215196 0 0 Z " fill="#3882DB" transform="translate(323,471)"/>
<path d="M0 0 C0 4.00952393 -1.43744913 5.08629947 -4 8.125 C-4.81597656 9.09308594 -5.63195312 10.06117188 -6.47265625 11.05859375 C-7.30667969 12.02925781 -8.14070313 12.99992188 -9 14 C-9.76183594 14.89847656 -10.52367187 15.79695312 -11.30859375 16.72265625 C-15.32691559 21.37506191 -15.32691559 21.37506191 -17 23 C-17.66 23 -18.32 23 -19 23 C-17.84826645 20.53199953 -16.95216435 18.95216435 -15 17 C-14.3574765 14.93125966 -14.3574765 14.93125966 -14 13 C-12.68 13 -11.36 13 -10 13 C-9.75507813 12.43796875 -9.51015625 11.8759375 -9.2578125 11.296875 C-7.77073461 8.58134146 -5.95937218 6.53608562 -3.875 4.25 C-3.15054688 3.45078125 -2.42609375 2.6515625 -1.6796875 1.828125 C-1.12539063 1.22484375 -0.57109375 0.6215625 0 0 Z " fill="#3882DB" transform="translate(518,603)"/>
<path d="M0 0 C5.8852889 0.80858752 9.05205418 3.73061392 13 8 C16.75555851 13.25150521 17.4543031 17.63975664 17 24 C15.60866887 21.43138869 14.70229946 19.05989302 13.8125 16.25 C11.32693593 9.49986406 6.36359145 4.27821378 0 1 C0 0.67 0 0.34 0 0 Z " fill="#3782DA" transform="translate(709,400)"/>
<path d="M0 0 C6.75 0.75 6.75 0.75 9 3 C8.8125 6.5 8.8125 6.5 8 10 C4.96474514 12.02350324 3.80573798 12.32124018 0.3125 12.625 C-0.49574219 12.69976562 -1.30398438 12.77453125 -2.13671875 12.8515625 C-3.05904297 12.92503906 -3.05904297 12.92503906 -4 13 C-4.33 12.34 -4.66 11.68 -5 11 C0.445 10.01 0.445 10.01 6 9 C5.89830839 6.05272465 5.89830839 6.05272465 5 3 C2.53744315 1.54708727 2.53744315 1.54708727 0 1 C0 0.67 0 0.34 0 0 Z " fill="#3A85DD" transform="translate(756,388)"/>
<path d="M0 0 C1.89646998 0.11493757 3.79218332 0.24239642 5.6875 0.375 C6.74324219 0.44460938 7.79898437 0.51421875 8.88671875 0.5859375 C11.93617975 0.99151199 14.19519117 1.78212248 17 3 C18.429572 3.40417219 19.86702882 3.78200684 21.3125 4.125 C23.1378125 4.558125 23.1378125 4.558125 25 5 C25 5.33 25 5.66 25 6 C18.97512156 6.21908649 13.82450494 5.49398047 8 4 C7.22527344 3.80921875 6.45054687 3.6184375 5.65234375 3.421875 C3.76617601 2.95615457 1.88277506 2.47925183 0 2 C0 1.34 0 0.68 0 0 Z " fill="#3B81D7" transform="translate(429,815)"/>
<path d="M0 0 C0.33 0 0.66 0 1 0 C0.59128562 8.68518048 -1.61864208 16.69293749 -4 25 C-4.33 25 -4.66 25 -5 25 C-5.20400323 19.14971371 -4.58102948 14.20050045 -3.0625 8.5625 C-2.78889648 7.48452148 -2.78889648 7.48452148 -2.50976562 6.38476562 C-1.15055006 1.15055006 -1.15055006 1.15055006 0 0 Z " fill="#3980D7" transform="translate(204,422)"/>
<path d="M0 0 C-0.53109375 0.36351562 -1.0621875 0.72703125 -1.609375 1.1015625 C-8.22904458 5.81264122 -11.72315884 9.7074456 -13.25 17.875 C-13.51389869 19.58124156 -13.76862524 21.28904457 -14 23 C-14.33 23 -14.66 23 -15 23 C-15.50523638 16.15124021 -15.30567179 10.59379521 -11 5 C-4.29771784 -1.43257261 -4.29771784 -1.43257261 0 0 Z " fill="#3780D8" transform="translate(750,402)"/>
<path d="M0 0 C8.31186175 0.30224952 13.54305143 3.79599889 19.5625 9.375 C20.036875 9.91125 20.51125 10.4475 21 11 C20.67 11.66 20.34 12.32 20 13 C19.38511719 12.50628906 18.77023437 12.01257813 18.13671875 11.50390625 C17.32847656 10.86324219 16.52023437 10.22257812 15.6875 9.5625 C14.48673828 8.60537109 14.48673828 8.60537109 13.26171875 7.62890625 C11.01302723 5.83888645 11.01302723 5.83888645 8 5 C8 4.34 8 3.68 8 3 C7.236875 2.87625 6.47375 2.7525 5.6875 2.625 C3 2 3 2 0 0 Z " fill="#3881DA" transform="translate(624,339)"/>
<path d="M0 0 C2.0625 0.4375 2.0625 0.4375 4 1 C-12.40157267 8.63855748 -12.40157267 8.63855748 -19 8 C-16.15524428 5.15524428 -12.70540666 4.54070117 -8.9375 3.4375 C-4.09233951 2.36494722 -4.09233951 2.36494722 0 0 Z " fill="#3980D6" transform="translate(619,807)"/>
<path d="M0 0 C5.69735341 1.09812934 10.67471215 2.6332054 16 5 C18.31937525 5.74274689 20.64483681 6.37516079 23 7 C23 7.33 23 7.66 23 8 C14.72550999 7.57200914 7.66700112 4.95555804 0 2 C0 1.34 0 0.68 0 0 Z " fill="#397FD6" transform="translate(398,805)"/>
<path d="M0 0 C7.89957062 -0.27990605 15.2472493 0.48462814 23 2 C23 2.33 23 2.66 23 3 C16.565 3.495 16.565 3.495 10 4 C10 3.34 10 2.68 10 2 C8.081875 2.061875 8.081875 2.061875 6.125 2.125 C3.9453125 2.1953125 3.9453125 2.1953125 2 2 C1.34 1.34 0.68 0.68 0 0 Z " fill="#3982DB" transform="translate(398,496)"/>
<path d="M0 0 C0.66 0 1.32 0 2 0 C0.44904419 3.62169141 -1.76865052 6.12518019 -4.4375 9 C-7.70433082 12.52881363 -7.70433082 12.52881363 -10.66015625 16.3125 C-11.10230469 16.869375 -11.54445313 17.42625 -12 18 C-12.66 18 -13.32 18 -14 18 C-12.35044362 13.91068059 -9.42596684 11.02035178 -6.4375 7.875 C-2.81366093 4.23596593 -2.81366093 4.23596593 0 0 Z " fill="#3782DA" transform="translate(664,437)"/>
<path d="M0 0 C0 4.24691525 -2.46581676 6.02933913 -5.25 8.9375 C-5.98669922 9.72543945 -5.98669922 9.72543945 -6.73828125 10.52929688 C-9.43930753 13.4067902 -12.1924913 16.22591402 -15 19 C-14.42676569 15.13066838 -12.61046448 12.84777943 -10 10 C-9.34 10 -8.68 10 -8 10 C-7.773125 9.443125 -7.54625 8.88625 -7.3125 8.3125 C-5.63848923 5.36305245 -3.45043651 3.3247731 -1 1 C-0.67 0.67 -0.34 0.34 0 0 Z " fill="#357ED7" transform="translate(564,526)"/>
<path d="M0 0 C0.66 0 1.32 0 2 0 C0.44182816 3.64984816 -1.81124399 6.1685954 -4.5 9.0625 C-6.90536731 11.65920335 -9.03404204 14.05106306 -11 17 C-11.66 17 -12.32 17 -13 17 C-11.44182816 13.35015184 -9.18875601 10.8314046 -6.5 7.9375 C-4.09463269 5.34079665 -1.96595796 2.94893694 0 0 Z " fill="#357FD8" transform="translate(573,540)"/>
<path d="M0 0 C0.66 0 1.32 0 2 0 C0.44182816 3.64984816 -1.81124399 6.1685954 -4.5 9.0625 C-6.90536731 11.65920335 -9.03404204 14.05106306 -11 17 C-11.66 17 -12.32 17 -13 17 C-11.38071731 13.09521545 -8.80673954 10.43827444 -5.9375 7.375 C-2.58466353 3.95790247 -2.58466353 3.95790247 0 0 Z " fill="#3780DA" transform="translate(694,527)"/>
<path d="M0 0 C-1.38994653 4.16983959 -3.6081824 4.91332353 -7.3671875 6.92578125 C-11.49745337 8.61097875 -15.57415808 8.89836271 -20 9 C-17.69051441 6.69051441 -16.36905042 6.42839177 -13.25 5.625 C-9.06096302 4.44456328 -3.92654587 0 0 0 Z " fill="#3882DB" transform="translate(719,381)"/>
<path d="M0 0 C4.11361164 0.64563411 8.14283203 1.44811988 12.1875 2.4375 C13.21230469 2.68371094 14.23710937 2.92992187 15.29296875 3.18359375 C18 4 18 4 21 6 C14.12020672 5.57550212 7.40044223 4.70240894 1 2 C0.67 1.34 0.34 0.68 0 0 Z " fill="#3881DB" transform="translate(356,486)"/>
<path d="M0 0 C5.33333333 5.33333333 10.66666667 10.66666667 16 16 C9.05245713 14.70778743 4.01672147 8.47734746 0 3 C0 2.01 0 1.02 0 0 Z " fill="#357ED7" transform="translate(296,447)"/>
<path d="M0 0 C-1.53115703 4.13697706 -4.50472062 6.27771285 -7.9375 8.8125 C-8.47568359 9.23208984 -9.01386719 9.65167969 -9.56835938 10.08398438 C-11.15234375 11.26953125 -11.15234375 11.26953125 -14 13 C-14.99 12.67 -15.98 12.34 -17 12 C-16.25234375 11.46890625 -15.5046875 10.9378125 -14.734375 10.390625 C-13.74953125 9.68421875 -12.7646875 8.9778125 -11.75 8.25 C-10.77546875 7.55390625 -9.8009375 6.8578125 -8.796875 6.140625 C-5.99103589 4.09561765 -5.99103589 4.09561765 -3.765625 1.734375 C-2 0 -2 0 0 0 Z " fill="#377FD7" transform="translate(593,456)"/>
<path d="M0 0 C3 1 3 1 4.60546875 3.51171875 C5.12753906 4.55972656 5.64960937 5.60773438 6.1875 6.6875 C6.71730469 7.72261719 7.24710938 8.75773437 7.79296875 9.82421875 C9.0508886 13.13389137 9.2365289 15.49411603 9 19 C8.73316406 18.46503906 8.46632813 17.93007813 8.19140625 17.37890625 C7.30743079 15.6138536 6.41866109 13.85120029 5.52734375 12.08984375 C5.00269531 11.04957031 4.47804688 10.00929688 3.9375 8.9375 C3.41027344 7.89464844 2.88304687 6.85179687 2.33984375 5.77734375 C1 3 1 3 0 0 Z " fill="#357ED7" transform="translate(646,353)"/>
<path d="M0 0 C0 4.90312435 -3.70199631 7.61341357 -7 11 C-8.62541044 12.38332804 -10.27385413 13.74462118 -12 15 C-10.38462556 11.10082032 -7.72075127 8.28706228 -4.875 5.25 C-4.40707031 4.74339844 -3.93914062 4.23679687 -3.45703125 3.71484375 C-2.30873459 2.47280859 -1.15491328 1.23588506 0 0 Z " fill="#367FD8" transform="translate(490,635)"/>
<path d="M0 0 C0 4.11389161 -1.65390327 5.11388506 -4.4375 8.0625 C-7.58571978 11.27375182 -7.58571978 11.27375182 -10 15 C-10.66 15 -11.32 15 -12 15 C-10.4722133 11.56247993 -8.49818944 8.81046312 -6 6 C-5.34 6 -4.68 6 -4 6 C-3.566875 5.071875 -3.566875 5.071875 -3.125 4.125 C-2 2 -2 2 0 0 Z " fill="#357FD8" transform="translate(549,568)"/>
<path d="M0 0 C0 4.08321607 -1.57888255 5.10217106 -4.3125 8.0625 C-5.11300781 8.94035156 -5.91351562 9.81820312 -6.73828125 10.72265625 C-9 13 -9 13 -12 15 C-10.38462556 11.10082032 -7.72075127 8.28706228 -4.875 5.25 C-4.40707031 4.74339844 -3.93914063 4.23679687 -3.45703125 3.71484375 C-2.30873459 2.47280859 -1.15491328 1.23588506 0 0 Z " fill="#367FD9" transform="translate(588,524)"/>
<path d="M0 0 C0 0.66 0 1.32 0 2 C-1.91040052 2.8680908 -3.82860737 3.71901783 -5.75 4.5625 C-6.81734375 5.03816406 -7.8846875 5.51382812 -8.984375 6.00390625 C-11.98369837 6.9946154 -13.13421241 7.16161779 -16 6 C-14.23002526 5.18563132 -12.45898848 4.3735706 -10.6875 3.5625 C-9.70136719 3.11003906 -8.71523438 2.65757812 -7.69921875 2.19140625 C-2.73442623 0 -2.73442623 0 0 0 Z " fill="#3781DA" transform="translate(558,479)"/>
<path d="M0 0 C0 4.15560231 -2.2820452 5.84099329 -5 8.6875 C-5.47695313 9.19861328 -5.95390625 9.70972656 -6.4453125 10.23632812 C-7.62359915 11.49709484 -8.81095253 12.74937686 -10 14 C-10.66 13.67 -11.32 13.34 -12 13 C-8.04 8.71 -4.08 4.42 0 0 Z " fill="#357DD7" transform="translate(476,651)"/>
<path d="M0 0 C0.33 0.99 0.66 1.98 1 3 C-0.65234375 5.69921875 -0.65234375 5.69921875 -2.9375 8.6875 C-3.68902344 9.68136719 -4.44054687 10.67523437 -5.21484375 11.69921875 C-5.80394531 12.45847656 -6.39304687 13.21773437 -7 14 C-7.66 13.67 -8.32 13.34 -9 13 C-6.03 8.71 -3.06 4.42 0 0 Z " fill="#357BD1" transform="translate(780,680)"/>
<path d="M0 0 C0.33 0 0.66 0 1 0 C0.67 5.28 0.34 10.56 0 16 C-2.14845925 11.70308151 -2.33016871 9.70490411 -2 5 C-1 2.0625 -1 2.0625 0 0 Z " fill="#3680D9" transform="translate(295,394)"/>
<path d="M0 0 C-1.43561686 3.18706942 -3.20266329 5.62169105 -5.5 8.25 C-6.1084375 8.95640625 -6.716875 9.6628125 -7.34375 10.390625 C-9 12 -9 12 -11 12 C-9.56438314 8.81293058 -7.79733671 6.37830895 -5.5 3.75 C-4.8915625 3.04359375 -4.283125 2.3371875 -3.65625 1.609375 C-2 0 -2 0 0 0 Z " fill="#3780D8" transform="translate(643,463)"/>
<path d="M0 0 C0.66 0 1.32 0 2 0 C0.32598022 3.95677402 -2.13149285 6.84464213 -5 10 C-5.66 10 -6.32 10 -7 10 C-5.32598022 6.04322598 -2.86850715 3.15535787 0 0 Z " fill="#3983DC" transform="translate(527,592)"/>
<path d="M0 0 C0 3.96130371 -1.34877125 4.82914401 -4 7.6875 C-4.7425 8.49574219 -5.485 9.30398438 -6.25 10.13671875 C-6.8275 10.75160156 -7.405 11.36648438 -8 12 C-8.66 11.67 -9.32 11.34 -10 11 C-6.7 7.37 -3.4 3.74 0 0 Z " fill="#357FD8" transform="translate(630,476)"/>
<path d="M0 0 C-1.24176695 0.70226141 -2.49385599 1.38629109 -3.75 2.0625 C-4.79414062 2.63677734 -4.79414062 2.63677734 -5.859375 3.22265625 C-8.36140628 4.1312406 -9.5332355 3.88336837 -12 3 C-10.75823305 2.29773859 -9.50614401 1.61370891 -8.25 0.9375 C-7.20585938 0.36322266 -7.20585938 0.36322266 -6.140625 -0.22265625 C-3.63859372 -1.1312406 -2.4667645 -0.88336837 0 0 Z " fill="#3781D9" transform="translate(559,451)"/>
<path d="M0 0 C0.99 0.33 1.98 0.66 3 1 C0.19195732 3.96404505 -2.18315774 6.44499019 -6 8 C-4.55746343 4.63408134 -2.66735273 2.48952921 0 0 Z " fill="#3883DD" transform="translate(604,506)"/>
<path d="M0 0 C1.48117801 0.28127421 2.95993249 0.57533732 4.4375 0.875 C5.67306641 1.11863281 5.67306641 1.11863281 6.93359375 1.3671875 C7.61550781 1.57601563 8.29742188 1.78484375 9 2 C9.33 2.66 9.66 3.32 10 4 C7.03 3.67 4.06 3.34 1 3 C0.67 2.01 0.34 1.02 0 0 Z " fill="#3982DB" transform="translate(698,396)"/>
<path d="M0 0 C0.66 0 1.32 0 2 0 C0.4169423 4.2742558 -2.50568404 6.26531794 -6 9 C-4.4722133 5.56247993 -2.49818944 2.81046312 0 0 Z " fill="#377FD6" transform="translate(612,620)"/>
<path d="M0 0 C0 3.93169105 -1.39419615 5.16427228 -4 8 C-4.66 8 -5.32 8 -6 8 C-4.55746343 4.63408134 -2.66735273 2.48952921 0 0 Z " fill="#3781DA" transform="translate(596,515)"/>
<path d="M0 0 C4 1 4 1 4 1 Z " fill="#4794EA" transform="translate(496,464)"/>
<path d="M0 0 C4 1 4 1 4 1 Z " fill="#4690EB" transform="translate(480,341)"/>
<path d="M0 0 C0.66 0.66 1.32 1.32 2 2 C1.34 2 0.68 2 0 2 C0 1.34 0 0.68 0 0 Z " fill="#458ADC" transform="translate(244,685)"/>
<path d="M0 0 C3 1 3 1 3 1 Z " fill="#4792EC" transform="translate(392,563)"/>
<path d="M0 0 C3 1 3 1 3 1 Z " fill="#4591EB" transform="translate(409,341)"/>
<path d="M0 0 C3 1 3 1 3 1 Z " fill="#438EDF" transform="translate(425,200)"/>
<path d="M0 0 C3 1 3 1 3 1 Z " fill="#448EE0" transform="translate(465,192)"/>
<path d="M0 0 C2 1 2 1 2 1 Z " fill="#488ADA" transform="translate(545,827)"/>
<path d="M0 0 C2 1 2 1 2 1 Z " fill="#468BDF" transform="translate(573,823)"/>
<path d="M0 0 C2 1 2 1 2 1 Z " fill="#478ADD" transform="translate(578,822)"/>
<path d="M0 0 C2 1 2 1 2 1 Z " fill="#458CE0" transform="translate(628,807)"/>
<path d="M0 0 C2 1 2 1 2 1 Z " fill="#4789DB" transform="translate(371,797)"/>
<path d="M0 0 C2 1 2 1 2 1 Z " fill="#458ADD" transform="translate(368,795)"/>
<path d="M0 0 C2 1 2 1 2 1 Z " fill="#4689DD" transform="translate(352,787)"/>
<path d="" fill="#4592EB" transform="translate(0,0)"/>
<path d="M0 0 C2 1 2 1 2 1 Z " fill="#4691EB" transform="translate(404,665)"/>
<path d="M0 0 C2 1 2 1 2 1 Z " fill="#4592EB" transform="translate(369,658)"/>
<path d="M0 0 C2 1 2 1 2 1 Z " fill="#4693E9" transform="translate(472,568)"/>
<path d="" fill="#468BDD" transform="translate(0,0)"/>
<path d="M0 0 C2 1 2 1 2 1 Z " fill="#4791E9" transform="translate(350,552)"/>
<path d="M0 0 C2 1 2 1 2 1 Z " fill="#4390EB" transform="translate(459,502)"/>
<path d="" fill="#4591EC" transform="translate(0,0)"/>
<path d="M0 0 C2 1 2 1 2 1 Z " fill="#4390EB" transform="translate(473,501)"/>
<path d="M0 0 C2 1 2 1 2 1 Z " fill="#4590EB" transform="translate(410,500)"/>
<path d="M0 0 C2 1 2 1 2 1 Z " fill="#4794ED" transform="translate(516,495)"/>
<path d="M0 0 C2 1 2 1 2 1 Z " fill="#4793EE" transform="translate(564,478)"/>
<path d="" fill="#488CDF" transform="translate(0,0)"/>
<path d="M0 0 C2 1 2 1 2 1 Z " fill="#4692E7" transform="translate(398,464)"/>
<path d="M0 0 C2 1 2 1 2 1 Z " fill="#4793E9" transform="translate(745,400)"/>
<path d="" fill="#4692EB" transform="translate(0,0)"/>
<path d="" fill="#458AE0" transform="translate(0,0)"/>
<path d="M0 0 C2 1 2 1 2 1 Z " fill="#4691ED" transform="translate(556,359)"/>
<path d="M0 0 C2 1 2 1 2 1 Z " fill="#4491EC" transform="translate(531,350)"/>
<path d="M0 0 C2 1 2 1 2 1 Z " fill="#4993EB" transform="translate(374,347)"/>
<path d="M0 0 C2 1 2 1 2 1 Z " fill="#4490EA" transform="translate(491,342)"/>
<path d="M0 0 C2 1 2 1 2 1 Z " fill="#4592ED" transform="translate(488,342)"/>
<path d="M0 0 C2 1 2 1 2 1 Z " fill="#488BDD" transform="translate(391,211)"/>
<path d="M0 0 C2 1 2 1 2 1 Z " fill="#468BDD" transform="translate(421,201)"/>
<path d="" fill="#4789D9" transform="translate(0,0)"/>
<path d="" fill="#478AD9" transform="translate(0,0)"/>
<path d="" fill="#4689D9" transform="translate(0,0)"/>
<path d="" fill="#4688DB" transform="translate(0,0)"/>
<path d="" fill="#4788D9" transform="translate(0,0)"/>
<path d="" fill="#4788D9" transform="translate(0,0)"/>
<path d="" fill="#4B8ADA" transform="translate(0,0)"/>
<path d="" fill="#468ADC" transform="translate(0,0)"/>
<path d="" fill="#4789DB" transform="translate(0,0)"/>
<path d="" fill="#488BDE" transform="translate(0,0)"/>
<path d="" fill="#4789DC" transform="translate(0,0)"/>
<path d="" fill="#458BE0" transform="translate(0,0)"/>
<path d="" fill="#458BDE" transform="translate(0,0)"/>
<path d="" fill="#468ADB" transform="translate(0,0)"/>
<path d="" fill="#468ADC" transform="translate(0,0)"/>
<path d="" fill="#458ADC" transform="translate(0,0)"/>
<path d="" fill="#4689DC" transform="translate(0,0)"/>
<path d="" fill="#4689DC" transform="translate(0,0)"/>
<path d="" fill="#448AE0" transform="translate(0,0)"/>
<path d="" fill="#4585DA" transform="translate(0,0)"/>
<path d="" fill="#488FE2" transform="translate(0,0)"/>
<path d="" fill="#488AD9" transform="translate(0,0)"/>
<path d="" fill="#478AD9" transform="translate(0,0)"/>
<path d="" fill="#4689DD" transform="translate(0,0)"/>
<path d="" fill="#4889DA" transform="translate(0,0)"/>
<path d="" fill="#458ADC" transform="translate(0,0)"/>
<path d="" fill="#458BDD" transform="translate(0,0)"/>
<path d="" fill="#478FE2" transform="translate(0,0)"/>
<path d="" fill="#4688DC" transform="translate(0,0)"/>
<path d="" fill="#488CDD" transform="translate(0,0)"/>
<path d="" fill="#4888DC" transform="translate(0,0)"/>
<path d="" fill="#4887D8" transform="translate(0,0)"/>
<path d="" fill="#4789DA" transform="translate(0,0)"/>
<path d="" fill="#4792EB" transform="translate(0,0)"/>
<path d="" fill="#4589DC" transform="translate(0,0)"/>
<path d="" fill="#4688D9" transform="translate(0,0)"/>
<path d="" fill="#478BDA" transform="translate(0,0)"/>
<path d="" fill="#4995EB" transform="translate(0,0)"/>
<path d="" fill="#4696EC" transform="translate(0,0)"/>
<path d="" fill="#4889D9" transform="translate(0,0)"/>
<path d="" fill="#468ADF" transform="translate(0,0)"/>
<path d="" fill="#458CDE" transform="translate(0,0)"/>
<path d="" fill="#468ADE" transform="translate(0,0)"/>
<path d="" fill="#4691E9" transform="translate(0,0)"/>
<path d="" fill="#4795ED" transform="translate(0,0)"/>
<path d="" fill="#4688DD" transform="translate(0,0)"/>
<path d="" fill="#488CDF" transform="translate(0,0)"/>
<path d="" fill="#4593E8" transform="translate(0,0)"/>
<path d="" fill="#4996EC" transform="translate(0,0)"/>
<path d="" fill="#4697ED" transform="translate(0,0)"/>
<path d="" fill="#478CDE" transform="translate(0,0)"/>
<path d="" fill="#4789DD" transform="translate(0,0)"/>
<path d="" fill="#4591E9" transform="translate(0,0)"/>
<path d="" fill="#498ADC" transform="translate(0,0)"/>
<path d="" fill="#478BDA" transform="translate(0,0)"/>
<path d="" fill="#458BDF" transform="translate(0,0)"/>
<path d="" fill="#4792EE" transform="translate(0,0)"/>
<path d="" fill="#468ADD" transform="translate(0,0)"/>
<path d="" fill="#4893EE" transform="translate(0,0)"/>
<path d="" fill="#4888DA" transform="translate(0,0)"/>
<path d="" fill="#488CDA" transform="translate(0,0)"/>
<path d="" fill="#4694EC" transform="translate(0,0)"/>
<path d="" fill="#4689D7" transform="translate(0,0)"/>
<path d="" fill="#4694E8" transform="translate(0,0)"/>
<path d="" fill="#4990E8" transform="translate(0,0)"/>
<path d="" fill="#4793ED" transform="translate(0,0)"/>
<path d="" fill="#4690EA" transform="translate(0,0)"/>
<path d="" fill="#478ADD" transform="translate(0,0)"/>
<path d="" fill="#478DE1" transform="translate(0,0)"/>
<path d="" fill="#4894EA" transform="translate(0,0)"/>
<path d="" fill="#4594EA" transform="translate(0,0)"/>
<path d="" fill="#4793EC" transform="translate(0,0)"/>
<path d="" fill="#4591ED" transform="translate(0,0)"/>
<path d="" fill="#4591EB" transform="translate(0,0)"/>
<path d="" fill="#4491EC" transform="translate(0,0)"/>
<path d="" fill="#4489DD" transform="translate(0,0)"/>
<path d="" fill="#468BDE" transform="translate(0,0)"/>
<path d="" fill="#4691EC" transform="translate(0,0)"/>
<path d="" fill="#478BDA" transform="translate(0,0)"/>
<path d="" fill="#4694EC" transform="translate(0,0)"/>
<path d="" fill="#4692EA" transform="translate(0,0)"/>
<path d="" fill="#4893EA" transform="translate(0,0)"/>
<path d="" fill="#4591E8" transform="translate(0,0)"/>
<path d="" fill="#468ADF" transform="translate(0,0)"/>
<path d="" fill="#4591EC" transform="translate(0,0)"/>
<path d="" fill="#4892EC" transform="translate(0,0)"/>
<path d="" fill="#468BDA" transform="translate(0,0)"/>
<path d="" fill="#4693EE" transform="translate(0,0)"/>
<path d="" fill="#498BE0" transform="translate(0,0)"/>
<path d="" fill="#4693EC" transform="translate(0,0)"/>
<path d="" fill="#4792EA" transform="translate(0,0)"/>
<path d="" fill="#478DE0" transform="translate(0,0)"/>
<path d="" fill="#488DE1" transform="translate(0,0)"/>
<path d="" fill="#4892EC" transform="translate(0,0)"/>
<path d="" fill="#4692EC" transform="translate(0,0)"/>
<path d="" fill="#478EE0" transform="translate(0,0)"/>
<path d="" fill="#4791EA" transform="translate(0,0)"/>
<path d="" fill="#4992EA" transform="translate(0,0)"/>
<path d="" fill="#458CE0" transform="translate(0,0)"/>
<path d="" fill="#4592EB" transform="translate(0,0)"/>
<path d="" fill="#4790E7" transform="translate(0,0)"/>
<path d="" fill="#4491EC" transform="translate(0,0)"/>
<path d="" fill="#4791ED" transform="translate(0,0)"/>
<path d="" fill="#4792EC" transform="translate(0,0)"/>
<path d="" fill="#4690EA" transform="translate(0,0)"/>
<path d="" fill="#4892EC" transform="translate(0,0)"/>
<path d="" fill="#4691EB" transform="translate(0,0)"/>
<path d="" fill="#4693ED" transform="translate(0,0)"/>
<path d="" fill="#4591E8" transform="translate(0,0)"/>
<path d="" fill="#4891EA" transform="translate(0,0)"/>
<path d="" fill="#4893EC" transform="translate(0,0)"/>
<path d="" fill="#4896ED" transform="translate(0,0)"/>
<path d="" fill="#4791EB" transform="translate(0,0)"/>
<path d="" fill="#4793EC" transform="translate(0,0)"/>
<path d="" fill="#4693EB" transform="translate(0,0)"/>
<path d="" fill="#4691EC" transform="translate(0,0)"/>
<path d="" fill="#4392EC" transform="translate(0,0)"/>
<path d="" fill="#4792EB" transform="translate(0,0)"/>
<path d="" fill="#4893EB" transform="translate(0,0)"/>
<path d="" fill="#478EE1" transform="translate(0,0)"/>
<path d="" fill="#4592EA" transform="translate(0,0)"/>
<path d="" fill="#4792EB" transform="translate(0,0)"/>
<path d="" fill="#4792E9" transform="translate(0,0)"/>
<path d="" fill="#4691E7" transform="translate(0,0)"/>
<path d="" fill="#4793E9" transform="translate(0,0)"/>
<path d="" fill="#4593E9" transform="translate(0,0)"/>
<path d="" fill="#4592EA" transform="translate(0,0)"/>
<path d="" fill="#4893EC" transform="translate(0,0)"/>
<path d="" fill="#488DDE" transform="translate(0,0)"/>
<path d="" fill="#4692EB" transform="translate(0,0)"/>
<path d="" fill="#498DE0" transform="translate(0,0)"/>
<path d="" fill="#488EDF" transform="translate(0,0)"/>
<path d="" fill="#4793EB" transform="translate(0,0)"/>
<path d="" fill="#4793EB" transform="translate(0,0)"/>
<path d="" fill="#488DE2" transform="translate(0,0)"/>
<path d="" fill="#4792E9" transform="translate(0,0)"/>
<path d="" fill="#4791E9" transform="translate(0,0)"/>
<path d="" fill="#458FE8" transform="translate(0,0)"/>
<path d="" fill="#458ADE" transform="translate(0,0)"/>
<path d="" fill="#4893EC" transform="translate(0,0)"/>
<path d="" fill="#4789DC" transform="translate(0,0)"/>
<path d="" fill="#4894EC" transform="translate(0,0)"/>
<path d="" fill="#4489DC" transform="translate(0,0)"/>
<path d="" fill="#4891E9" transform="translate(0,0)"/>
<path d="" fill="#4893EB" transform="translate(0,0)"/>
<path d="" fill="#4691EC" transform="translate(0,0)"/>
<path d="" fill="#4993EE" transform="translate(0,0)"/>
<path d="" fill="#4690EA" transform="translate(0,0)"/>
<path d="" fill="#4793EE" transform="translate(0,0)"/>
<path d="" fill="#4892EB" transform="translate(0,0)"/>
<path d="" fill="#488DDB" transform="translate(0,0)"/>
<path d="" fill="#4590EB" transform="translate(0,0)"/>
<path d="" fill="#4692EC" transform="translate(0,0)"/>
<path d="" fill="#4A95EE" transform="translate(0,0)"/>
<path d="" fill="#4793EB" transform="translate(0,0)"/>
<path d="" fill="#4690E9" transform="translate(0,0)"/>
<path d="" fill="#4792EC" transform="translate(0,0)"/>
<path d="" fill="#4793ED" transform="translate(0,0)"/>
<path d="" fill="#4692EC" transform="translate(0,0)"/>
<path d="" fill="#468FEA" transform="translate(0,0)"/>
<path d="" fill="#478FEB" transform="translate(0,0)"/>
<path d="" fill="#4692EC" transform="translate(0,0)"/>
<path d="" fill="#4893EB" transform="translate(0,0)"/>
<path d="" fill="#4492E9" transform="translate(0,0)"/>
<path d="" fill="#488CDF" transform="translate(0,0)"/>
<path d="" fill="#4693EC" transform="translate(0,0)"/>
<path d="" fill="#498FED" transform="translate(0,0)"/>
<path d="" fill="#458FEC" transform="translate(0,0)"/>
<path d="" fill="#4890EC" transform="translate(0,0)"/>
<path d="" fill="#4791EE" transform="translate(0,0)"/>
<path d="" fill="#4794ED" transform="translate(0,0)"/>
<path d="" fill="#458CE0" transform="translate(0,0)"/>
<path d="" fill="#458EEA" transform="translate(0,0)"/>
<path d="" fill="#4690EA" transform="translate(0,0)"/>
<path d="" fill="#4793EE" transform="translate(0,0)"/>
<path d="" fill="#468DDF" transform="translate(0,0)"/>
<path d="" fill="#468CE1" transform="translate(0,0)"/>
<path d="" fill="#488DDE" transform="translate(0,0)"/>
<path d="" fill="#478EDE" transform="translate(0,0)"/>
<path d="" fill="#468CE0" transform="translate(0,0)"/>
<path d="" fill="#478CDE" transform="translate(0,0)"/>
<path d="" fill="#478CDC" transform="translate(0,0)"/>
<path d="" fill="#458CDD" transform="translate(0,0)"/>
<path d="" fill="#4791E1" transform="translate(0,0)"/>
<path d="" fill="#488ADB" transform="translate(0,0)"/>
<path d="" fill="#488CDE" transform="translate(0,0)"/>
<path d="" fill="#4489DD" transform="translate(0,0)"/>
<path d="" fill="#448ADC" transform="translate(0,0)"/>
<path d="" fill="#468BDD" transform="translate(0,0)"/>
<path d="" fill="#458ADE" transform="translate(0,0)"/>
<path d="" fill="#478CDF" transform="translate(0,0)"/>
<path d="" fill="#478BDF" transform="translate(0,0)"/>
<path d="" fill="#458BDD" transform="translate(0,0)"/>
<path d="" fill="#488CDD" transform="translate(0,0)"/>
</svg>
